<?xml version="1.0" encoding="utf-8"?>
<!-- Generator: Adobe Adobe Illustrator 24.2.0, SVG Export Plug-In . SVG Version: 6.00 Build 0)  -->
<svg version="1.1" id="Layer_1" xmlns="http://www.w3.org/2000/svg" xmlns:xlink="http://www.w3.org/1999/xlink" x="0px" y="0px"
	 width="1152px" height="1152px" viewBox="0 0 1152 1152" style="enable-background:new 0 0 1152 1152;" xml:space="preserve">
<style type="text/css">
	.st0{fill:#FFFFFF;}
	.st1{fill:none;stroke:#7A7B7D;stroke-width:20;stroke-miterlimit:10;}
	.st2{fill:none;stroke:#0D0D0D;stroke-width:20;stroke-miterlimit:10;}
	.st3{fill:none;stroke:#0D0D0D;stroke-width:12;stroke-miterlimit:10;}
	.st4{fill:none;stroke:#0D0D0D;stroke-width:14;stroke-miterlimit:10;}
</style>
<rect class="st0" width="1152" height="1152"/>
<g>
	<g>
		<path class="st1" d="M850.44,276.22v460.9H301.56v-460.9c0-53.62,38.5-97.1,85.98-97.1h376.91
			C811.94,179.11,850.44,222.59,850.44,276.22z"/>
		<path class="st1" d="M346.45,555.86V351.14c0-47.09,38.18-85.27,85.27-85.27h288.57c47.09,0,85.27,38.18,85.27,85.27v204.73
			H346.45z"/>
		<path class="st1" d="M799.07,672.49v-28.37c0-13.93-11.29-25.22-25.22-25.22h-48.03c-13.93,0-25.22,11.29-25.22,25.22v28.37
			c0,13.93,11.29,25.22,25.22,25.22h48.03C787.78,697.71,799.07,686.42,799.07,672.49z"/>
		<path class="st1" d="M451.39,672.49v-28.37c0-13.93-11.29-25.22-25.22-25.22h-48.03c-13.93,0-25.22,11.29-25.22,25.22v28.37
			c0,13.93,11.29,25.22,25.22,25.22h48.03C440.1,697.71,451.39,686.42,451.39,672.49z"/>
		<path class="st1" d="M850.44,737.11v50.46c0,9.24-7.35,16.72-16.42,16.72H317.98c-9.07,0-16.42-7.48-16.42-16.72v-50.46H850.44z"
			/>
		<path class="st1" d="M850.44,619.11v118.01H301.56V619.11c0-34.92,27.81-63.25,62.11-63.25h424.65
			C822.63,555.86,850.44,584.18,850.44,619.11z"/>
		<path class="st1" d="M658.24,669.42v41.63c0,14.39-11.46,26.06-25.6,26.06H523.83c-14.14,0-25.6-11.67-25.6-26.06v-41.63
			c0-14.39,11.46-26.06,25.6-26.06h108.81C646.78,643.36,658.24,655.03,658.24,669.42z"/>
	</g>
	<path class="st1" d="M654.55,673.29c-50.87,0.25-101.74,0.5-152.61,0.75"/>
	<path class="st1" d="M654.55,705.46c-50.87,0.25-101.74,0.5-152.61,0.75"/>
	<path class="st1" d="M400.01,804.29v75.99c0,20.83-16.58,37.72-37.04,37.72h-9.92c-20.47,0-37.04-16.89-37.04-37.72v-75.99H400.01z
		"/>
	<path class="st1" d="M832,804.29v75.99c0,20.83-16.58,37.72-37.04,37.72h-9.92c-20.47,0-37.04-16.89-37.04-37.72v-75.99H832z"/>
</g>
<g>
	<g>
		<g>
			<line class="st3" x1="501.1" y1="360.53" x2="661.09" y2="455.92"/>
			<path class="st3" d="M539.17,382.92l-36.54-3.9L539.17,382.92z"/>
			<path class="st3" d="M538.98,383.22l-20.18-29.77L538.98,383.22z"/>
			<path class="st3" d="M623.41,432.92l20.18,29.77L623.41,432.92z"/>
			<path class="st3" d="M623.22,433.23l36.54,3.9L623.22,433.23z"/>
			<g>
				<line class="st3" x1="501.1" y1="360.53" x2="661.09" y2="455.92"/>
				<path class="st3" d="M539.17,382.92l-36.54-3.9L539.17,382.92z"/>
				<path class="st3" d="M538.98,383.22l-20.18-29.77L538.98,383.22z"/>
				<path class="st3" d="M623.41,432.92l20.18,29.77L623.41,432.92z"/>
				<path class="st3" d="M623.22,433.23l36.54,3.9L623.22,433.23z"/>
			</g>
			<g>
				<line class="st3" x1="582.21" y1="495.15" x2="580.57" y2="321.02"/>
				<path class="st3" d="M581.54,453.86l16.73,31.49L581.54,453.86z"/>
				<path class="st3" d="M581.92,453.87l-16.01,30.17L581.92,453.87z"/>
				<path class="st3" d="M580.47,362.28l16.01-30.17L580.47,362.28z"/>
				<path class="st3" d="M580.86,362.3l-16.73-31.49L580.86,362.3z"/>
			</g>
			<g>
				<line class="st3" x1="500.62" y1="446.71" x2="661.58" y2="369.11"/>
				<path class="st3" d="M538.92,428.56l-36.57-0.15L538.92,428.56z"/>
				<path class="st3" d="M538.73,428.23l-20.5,27.51L538.73,428.23z"/>
				<path class="st3" d="M623.66,387.92l20.5-27.51L623.66,387.92z"/>
				<path class="st3" d="M623.48,387.59l36.57,0.15L623.48,387.59z"/>
			</g>
		</g>
	</g>
	<g>
		<path class="st4" d="M475.7,441.39c-3.54-10.51-5.46-21.73-5.46-33.39c0-67.88,68.29-125.49,140-103.5"/>
		<path class="st4" d="M665.45,483.8c-20.63,21.64-50.38,35.22-83.46,35.22c-47.87,0-84.28-22.94-100.63-63.07"/>
		<path class="st4" d="M631.55,311.69c77.83,28.37,74.99,118.13,42.55,161.85"/>
		<path class="st4" d="M644.01,297.5c-6.51,3.81-13.02,7.61-19.53,11.42c2.97,6.99,5.93,13.98,8.89,20.97"/>
		<path class="st4" d="M456.45,432.07c6.9,3.04,13.8,6.08,20.7,9.12c3.92-6.5,7.85-13,11.77-19.5"/>
		<path class="st4" d="M667.83,505.25c-0.56-7.52-1.12-15.04-1.69-22.56c-7.58-0.41-15.16-0.81-22.75-1.22"/>
	</g>
</g>
<path class="st1" d="M206,531L206,531c0-18.5,15-33.5,33.5-33.5h23.49c15.47,0,28.01,12.54,28.01,28.01v38.99h-51.5
	C221,564.5,206,549.5,206,531z"/>
<path class="st1" d="M946,531L946,531c0-18.5-15-33.5-33.5-33.5h-23.49c-15.47,0-28.01,12.54-28.01,28.01v38.99h51.5
	C931,564.5,946,549.5,946,531z"/>
</svg>
