<?xml version="1.0" encoding="utf-8"?>
<!-- Generator: Adobe Adobe Illustrator 24.2.0, SVG Export Plug-In . SVG Version: 6.00 Build 0)  -->
<svg version="1.1" xmlns="http://www.w3.org/2000/svg" xmlns:xlink="http://www.w3.org/1999/xlink" x="0px" y="0px" width="1152px"
	 height="1152px" viewBox="0 0 1152 1152" style="enable-background:new 0 0 1152 1152;" xml:space="preserve">
<style type="text/css">
	.st0{fill:none;}
	.st1{fill:#6C6F73;stroke:#0D0D0D;stroke-width:3;stroke-miterlimit:10;}
	.st2{fill:#BFBFBF;stroke:#0D0D0D;stroke-width:3;stroke-miterlimit:10;}
	.st3{fill:#0D0D0D;}
</style>
<g id="Layer_1">
</g>
<g id="Layer_2">
	<g id="Layer_4">
		<rect class="st0" width="1152" height="1152"/>
	</g>
	<path class="st1" d="M264.8,421.98c-3.95,12.47-6.36,25.84-7.08,39.91c-0.77,14.99,12.64,30.01,28.17,31.64l13.15,1.38
		c-4.54,12.25-8.01,24.87-10.35,37.65h-64.95c-4.14,21.74-6.31,44.17-6.31,67.09C217.43,798.12,379.84,959,580.18,959
		s362.76-160.88,362.76-359.35S780.53,240.3,580.18,240.3c-36.62,0-71.96,5.37-105.28,15.38l0.88,96.18
		c-15.65,0.81-30.63,3.51-44.82,7.86l-1.6-13.88c-1.65-15.43-16.76-23.57-31.85-22.82c-27.61,1.39-52.49,9.18-73.35,22.07"/>
	<ellipse class="st2" cx="580.18" cy="599.65" rx="198.88" ry="197.01"/>
	<ellipse class="st2" cx="580.18" cy="599.65" rx="135.97" ry="133.69"/>
	<g>
		
			<ellipse transform="matrix(0.891 -0.454 0.454 0.891 -251.9454 321.1659)" class="st3" cx="542.9" cy="685.3" rx="16.91" ry="17.03"/>
		
			<ellipse transform="matrix(0.2143 -0.9768 0.9768 0.2143 -236.7712 990.0589)" class="st3" cx="497.03" cy="642.21" rx="17.03" ry="16.91"/>
		
			<ellipse transform="matrix(0.7853 -0.6191 0.6191 0.7853 -253.9861 427.1526)" class="st3" cx="488.91" cy="579.79" rx="17.03" ry="16.91"/>
		
			<ellipse transform="matrix(0.0196 -0.9998 0.9998 0.0196 -14.3245 1038.1842)" class="st3" cx="522.22" cy="526.4" rx="16.91" ry="17.03"/>
		
			<ellipse transform="matrix(0.6494 -0.7604 0.7604 0.6494 -180.9893 619.9112)" class="st3" cx="581.85" cy="506.25" rx="16.91" ry="17.03"/>
		
			<ellipse transform="matrix(0.9844 -0.1758 0.1758 0.9844 -82.9319 120.8672)" class="st3" cx="640.72" cy="528.51" rx="16.91" ry="17.03"/>
		
			<ellipse transform="matrix(0.4886 -0.8725 0.8725 0.4886 -165.0177 884.579)" class="st3" cx="672.11" cy="583.06" rx="17.03" ry="16.91"/>
		
			<ellipse transform="matrix(0.9312 -0.3645 0.3645 0.9312 -189.6167 285.5704)" class="st3" cx="661.77" cy="645.14" rx="17.03" ry="16.91"/>
		
			<ellipse transform="matrix(0.309 -0.9511 0.9511 0.309 -228.4384 1058.7251)" class="st3" cx="614.39" cy="686.57" rx="16.91" ry="17.03"/>
	</g>
	<path class="st2" d="M430.97,359.71c-62.66,19.19-109.85,75.45-131.92,135.2l-13.15-1.38c-15.53-1.63-28.94-16.65-28.17-31.64
		c0.72-14.07,3.13-27.44,7.08-39.91c10.32-32.82,31.18-59.51,59.36-76.9c20.86-12.89,45.74-20.67,73.35-22.07
		c15.09-0.75,30.2,7.39,31.85,22.82L430.97,359.71z"/>
	<path class="st2" d="M430.97,359.71c-62.66,19.19-109.85,75.45-131.92,135.2l-13.15-1.38c-15.53-1.63-28.94-16.65-28.17-31.64
		c0.72-14.07,3.13-27.44,7.08-39.91c10.32-32.82,31.18-59.51,59.36-76.9c20.86-12.89,45.74-20.67,73.35-22.07
		c15.09-0.75,30.2,7.39,31.85,22.82L430.97,359.71z"/>
	<path class="st2" d="M474.9,255.67l-0.16-16.33c0-28.37-25.46-50.16-53.67-45.79c-147.77,22.9-264.51,138.89-287.58,285.68
		c-4.4,28.03,17.55,53.31,46.1,53.31h109.09c2.34-12.78,5.81-25.4,10.35-37.65l-13.15-1.38c-15.53-1.63-28.94-16.65-28.17-31.64
		c0.72-14.07,3.13-27.44,7.08-39.91c10.32-32.82,31.18-59.51,59.36-76.9c20.86-12.89,45.74-20.67,73.35-22.07
		c15.09-0.75,30.2,7.39,31.85,22.82l1.6,13.88c14.19-4.35,29.17-7.05,44.82-7.86L474.9,255.67z"/>
	
		<ellipse transform="matrix(0.4422 -0.8969 0.8969 0.4422 -326.5946 429.8259)" class="st3" cx="182.29" cy="477.5" rx="17.38" ry="17.53"/>
	
		<ellipse transform="matrix(0.4422 -0.8969 0.8969 0.4422 22.4839 516.7497)" class="st3" cx="426.71" cy="240.3" rx="17.38" ry="17.53"/>
	
		<ellipse transform="matrix(0.4422 -0.8969 0.8969 0.4422 -214.2175 854.8316)" class="st3" cx="580.18" cy="599.65" rx="17.38" ry="17.53"/>
</g>
<g id="Layer_3">
</g>
</svg>
