<?xml version="1.0" encoding="utf-8"?>
<!-- Generator: Adobe Adobe Illustrator 24.2.0, SVG Export Plug-In . SVG Version: 6.00 Build 0)  -->
<svg version="1.1" id="Layer_1" xmlns="http://www.w3.org/2000/svg" xmlns:xlink="http://www.w3.org/1999/xlink" x="0px" y="0px"
	 width="1152px" height="1152px" viewBox="0 0 1152 1152" style="enable-background:new 0 0 1152 1152;" xml:space="preserve">
<style type="text/css">
	.st0{fill:none;stroke:#F2F2F2;stroke-miterlimit:10;}
	.st1{fill:none;stroke:#6C6F73;stroke-width:19.4962;stroke-miterlimit:10;}
	.st2{fill:none;stroke:#6C6F73;stroke-width:20.9904;stroke-miterlimit:10;}
	.st3{fill:none;stroke:#6C6F73;stroke-width:14.6222;stroke-miterlimit:10;}
	.st4{fill:none;stroke:#6C6F73;stroke-width:20.85;stroke-miterlimit:10;}
	.st5{fill:none;stroke:#0D0D0D;stroke-width:19.4962;stroke-miterlimit:10;}
</style>
<rect y="0" class="st0" width="1152" height="1152"/>
<g>
	<g>
		<path class="st1" d="M364.74,529.33V208.76c0-42.4,34.37-76.76,76.76-76.76h268.98c42.4,0,76.76,34.37,76.76,76.76v320.57
			c0,8.1-6.56,14.66-14.66,14.66H379.41C371.31,543.99,364.74,537.43,364.74,529.33z"/>
		<path class="st2" d="M399.29,364.52v-82.31c0-28.97,23.48-52.45,52.45-52.45h248.5c28.97,0,52.45,23.48,52.45,52.45v82.31H399.29z
			"/>
		<path class="st1" d="M747.71,441.78v-6.49c0-13.93-11.29-25.22-25.22-25.22h-25.36c-13.93,0-25.22,11.29-25.22,25.22v6.49
			c0,13.93,11.29,25.22,25.22,25.22h25.36C736.42,466.99,747.71,455.7,747.71,441.78z"/>
		<path class="st1" d="M480.08,441.78v-6.49c0-13.93-11.29-25.22-25.22-25.22H429.5c-13.93,0-25.22,11.29-25.22,25.22v6.49
			c0,13.93,11.29,25.22,25.22,25.22h25.36C468.79,466.99,480.08,455.7,480.08,441.78z"/>
		<path class="st1" d="M364.74,529.33v-33.87h422.51v33.87c0,8.1-6.56,14.66-14.66,14.66H379.41
			C371.31,543.99,364.74,537.43,364.74,529.33z"/>
		<path class="st1" d="M364.74,495.46v-75.48c0-30.63,24.83-55.45,55.45-55.45H731.8c30.63,0,55.45,24.83,55.45,55.45v75.48H364.74z
			"/>
		<path class="st1" d="M514.42,471.09v-22.03c0-12.62,10.23-22.85,22.85-22.85h77.47c12.62,0,22.85,10.23,22.85,22.85v22.03
			c0,12.62-10.23,22.85-22.85,22.85h-77.47C524.65,493.94,514.42,483.71,514.42,471.09z"/>
	</g>
	<path class="st3" d="M634.74,460.48c-39.16,0.18-78.32,0.36-117.48,0.54"/>
	<path class="st3" d="M634.74,481.65c-39.16,0.18-78.32,0.36-117.48,0.54"/>
</g>
<g>
	<rect x="191" y="933.37" class="st4" width="770" height="86.63"/>
	<path class="st4" d="M322.53,933.37h-81.29V621.7c0-22.45,18.2-40.64,40.65-40.64h0c22.45,0,40.65,18.2,40.65,40.64V933.37z"/>
	<rect x="322.53" y="665.2" class="st4" width="116.29" height="46.2"/>
	<path class="st4" d="M829.47,933.37h81.29V621.7c0-22.45-18.2-40.64-40.65-40.64h0c-22.45,0-40.65,18.2-40.65,40.64V933.37z"/>
	<rect x="713.18" y="665.2" class="st4" width="116.29" height="46.2"/>
</g>
<g>
	<rect x="429.75" y="584.9" class="st5" width="73.13" height="25.99"/>
	<rect x="649.13" y="584.9" class="st5" width="73.13" height="25.99"/>
	<g>
		<path class="st5" d="M364.74,625.85v-55.91c0-14.33,11.62-25.95,25.95-25.95h13.1c14.33,0,25.95,11.62,25.95,25.95v55.91
			c0,14.33-11.62,25.95-25.95,25.95h-13.1C376.36,651.8,364.74,640.19,364.74,625.85z"/>
		<path class="st5" d="M722.25,625.85v-55.91c0-14.33,11.62-25.95,25.95-25.95h13.1c14.33,0,25.95,11.62,25.95,25.95v55.91
			c0,14.33-11.62,25.95-25.95,25.95h-13.1C733.87,651.8,722.25,640.19,722.25,625.85z"/>
		<path class="st5" d="M649.13,584.9v25.99c-0.09,12.51-11.52,22.62-25.61,22.62h-95.03c-14.09,0-25.52-10.11-25.61-22.62V584.9
			c0.09-12.51,11.52-22.62,25.61-22.62h95.03C637.61,562.28,649.04,572.39,649.13,584.9z"/>
	</g>
</g>
</svg>
