<?xml version="1.0" encoding="utf-8"?>
<!-- Generator: Adobe Adobe Illustrator 24.2.0, SVG Export Plug-In . SVG Version: 6.00 Build 0)  -->
<svg version="1.1" id="Layer_1" xmlns="http://www.w3.org/2000/svg" xmlns:xlink="http://www.w3.org/1999/xlink" x="0px" y="0px"
	 width="1152px" height="1152px" viewBox="0 0 1152 1152" style="enable-background:new 0 0 1152 1152;" xml:space="preserve">
<style type="text/css">
	.st0{fill:none;}
	.st1{fill:#BFBFBF;stroke:#0D0D0D;stroke-width:20;stroke-miterlimit:10;}
	.st2{fill:none;stroke:#0D0D0D;stroke-width:20;stroke-miterlimit:10;}
	.st3{fill:#6C6F73;stroke:#0D0D0D;stroke-width:20;stroke-miterlimit:10;}
	.st4{fill:#3B3C40;stroke:#0D0D0D;stroke-width:20;stroke-miterlimit:10;}
</style>
<rect class="st0" width="1152" height="1152"/>
<path class="st1" d="M835.86,598.18l-87.95,57.37l-55.51-85.11l42.05-27.43l-89.29-136.89c-15.59-23.9-8.63-56.06,15.55-71.83
	l113.25-73.87c-15.96,10.41-20.55,31.63-10.26,47.4l18.26,27.99c10.29,15.77,31.56,20.12,47.51,9.71l-70.94,46.27l91.6,140.44
	C864.45,554.17,858.05,583.7,835.86,598.18z"/>
<path class="st2" d="M840.05,338.63l-10.58,6.9c-15.96,10.41-37.23,6.06-47.51-9.71l-18.26-27.99
	c-10.29-15.77-5.69-36.99,10.26-47.4l10.58-6.9L840.05,338.63z"/>
<path class="st1" d="M521.68,803.1l-95.44,62.25c-25.74,16.79-60.07,9.77-76.66-15.67l-117.5-180.14
	c-14.07-21.57-7.78-50.6,14.04-64.83l127.64-83.25l55.51,85.11l-81.06,52.87l62,95.06L466.17,718L521.68,803.1z"/>
<rect x="401.47" y="513.05" transform="matrix(0.8376 -0.5463 0.5463 0.8376 -242.7886 311.0536)" class="st2" width="0.55" height="101.61"/>
<path class="st3" d="M743.38,720.44l-13.61,8.88L617.57,557.3l13.61-8.88c18.15-11.84,42.36-6.89,54.07,11.05l69.81,107.03
	C766.76,684.45,761.53,708.6,743.38,720.44z"/>
<path class="st3" d="M596.5,816.24l-13.61,8.88c-18.15,11.84-42.36,6.89-54.07-11.05l-69.81-107.03
	c-11.7-17.94-6.48-42.09,11.68-53.93l13.61-8.88L596.5,816.24z"/>
<rect x="527.48" y="584.08" transform="matrix(0.8376 -0.5463 0.5463 0.8376 -276.5954 443.1703)" class="st3" width="159.1" height="205.38"/>
<rect x="396.19" y="469.88" transform="matrix(0.8376 -0.5463 0.5463 0.8376 -228.654 323.0529)" class="st3" width="65.61" height="152.41"/>
<path class="st4" d="M840.05,338.63l-10.58,6.9c-15.96,10.41-37.23,6.06-47.51-9.71l-18.26-27.99
	c-10.29-15.77-5.69-36.99,10.26-47.4l10.58-6.9L840.05,338.63z"/>
</svg>
