<?xml version="1.0" encoding="utf-8"?>
<!-- Generator: Adobe Adobe Illustrator 24.2.0, SVG Export Plug-In . SVG Version: 6.00 Build 0)  -->
<svg version="1.1" xmlns="http://www.w3.org/2000/svg" xmlns:xlink="http://www.w3.org/1999/xlink" x="0px" y="0px" width="1152px"
	 height="1152px" viewBox="0 0 1152 1152" style="enable-background:new 0 0 1152 1152;" xml:space="preserve">
<style type="text/css">
	.st0{fill:none;}
	.st1{fill:#3B3C40;stroke:#0D0D0D;stroke-width:22.7958;stroke-miterlimit:10;}
	.st2{fill:#6C6F73;stroke:#0D0D0D;stroke-width:22.7958;stroke-miterlimit:10;}
	.st3{fill:none;stroke:#0D0D0D;stroke-width:22;stroke-miterlimit:10;}
	.st4{fill:#BFBFBF;stroke:#0D0D0D;stroke-width:22.7958;stroke-miterlimit:10;}
	.st5{fill:#0D0D0D;}
</style>
<g id="Layer_1">
	<rect class="st0" width="1152" height="1152"/>
</g>
<g id="Layer_2">
	<g>
		<path class="st1" d="M461.33,345.66l-0.56-57.69c-0.32-33.52,29.03-60.77,65.14-60.47l62.14,0.52
			c35.21,0.29,63.67,26.72,63.99,59.4l0.56,57.69c0.32,33.52-29.03,60.77-65.14,60.47l-62.14-0.52
			C490.11,404.76,461.64,378.34,461.33,345.66z"/>
		<path class="st2" d="M521.2,459.5v-97.14c0-15.19,12.31-27.5,27.5-27.5h15.98c15.19,0,27.5,12.31,27.5,27.5v97.14H521.2z"/>
	</g>
	<path class="st4" d="M332.61,680.66l405.54-405.54c8.44-8.44,22.12-8.44,30.56,0l110.35,110.35c8.44,8.44,8.44,22.12,0,30.56
		L473.52,821.56c-20.62,20.62-54.06,20.62-74.68,0l-66.22-66.22C311.99,734.72,311.99,701.28,332.61,680.66z"/>
	<path class="st1" d="M439.85,467.51l57.91-57.91c13.6-13.6,35.65-13.6,49.26,0l197.56,197.56c13.6,13.6,13.6,35.65,0,49.26
		l-57.91,57.91c-13.6,13.6-35.65,13.6-49.26,0L439.85,516.77C426.25,503.17,426.25,481.11,439.85,467.51z"/>
	<path class="st2" d="M549.36,411.95l39.1-39.1c11.66-11.66,30.55-11.66,42.21,0l150.66,150.66c11.66,11.66,11.66,30.55,0,42.21
		l-39.1,39.1L549.36,411.95z"/>
	<path class="st2" d="M697.38,236.08l3.25-3.25c1.31-1.31,3.43-1.31,4.74,0l37.54,37.54l-36.39,36.39l-9.14-9.14
		C680.39,280.63,680.39,253.08,697.38,236.08z"/>
	<path class="st2" d="M918.09,456.8l3.25-3.25c1.31-1.31,1.31-3.43,0-4.74l-37.54-37.54l-36.39,36.39l9.14,9.14
		C873.55,473.79,901.1,473.79,918.09,456.8z"/>
	<path class="st2" d="M457.8,430.37l2.81-2.81c7.91-7.91,20.73-7.91,28.64,0l237.37,237.37c7.91,7.91,7.91,20.73,0,28.64l-2.81,2.81
		c-7.91,7.91-20.73,7.91-28.64,0L457.8,459.01C449.9,451.1,449.9,438.28,457.8,430.37z"/>
	<path class="st2" d="M264.66,807.55l60.08-60.08l81.98,81.98l-60.08,60.08c-9.49,9.49-24.89,9.49-34.38,0l-47.59-47.59
		C255.16,832.43,255.16,817.04,264.66,807.55z"/>
	
		<rect x="247.21" y="856.24" transform="matrix(0.7071 0.7071 -0.7071 0.7071 706.1342 72.5052)" class="st1" width="36.67" height="64.79"/>
	
		<rect x="762.53" y="294.61" transform="matrix(0.7071 0.7071 -0.7071 0.7071 456.2215 -453.9978)" class="st5" width="27.21" height="58.2"/>
	
		<rect x="816.15" y="348.23" transform="matrix(0.7071 0.7071 -0.7071 0.7071 509.8405 -476.2075)" class="st5" width="27.21" height="58.2"/>
</g>
</svg>
