<?xml version="1.0" encoding="utf-8"?>
<!-- Generator: Adobe Adobe Illustrator 24.2.0, SVG Export Plug-In . SVG Version: 6.00 Build 0)  -->
<svg version="1.1" xmlns="http://www.w3.org/2000/svg" xmlns:xlink="http://www.w3.org/1999/xlink" x="0px" y="0px" width="1920px"
	 height="1080px" viewBox="0 0 1920 1080" style="enable-background:new 0 0 1920 1080;" xml:space="preserve">
<style type="text/css">
	.st0{fill:none;fill-opacity: 0.0; }
	.st1{fill:none;stroke:#000000;stroke-width:5.3937;stroke-miterlimit:10;}
	.st2{fill:none;stroke:#000000;stroke-width:4.0453;stroke-miterlimit:10;}
	.st3{fill:none;stroke:#000000;stroke-width:0.2469;stroke-miterlimit:10;}
	.st4{fill:#000000;}
	.st5{fill:none;stroke:#000000;stroke-width:3.4274;stroke-miterlimit:10;}
	.st6{fill:none;stroke:#000000;stroke-width:3.2291;stroke-miterlimit:10;}
	.st7{fill:none;stroke:#000000;stroke-width:2.5706;stroke-miterlimit:10;}
	.st8{fill:none;stroke:#000000;stroke-width:3.6654;stroke-miterlimit:10;}
	.st9{fill:none;stroke:#000000;stroke-width:3.8757;stroke-miterlimit:10;}
	.st10{fill:none;stroke:#000000;stroke-width:5.2553;stroke-miterlimit:10;}
	.st11{fill:none;stroke:#000000;stroke-width:4.3794;stroke-miterlimit:10;}
	.st12{fill:none;stroke:#000000;stroke-width:3.5035;stroke-miterlimit:10;}
	.st13{fill:none;stroke:#000000;stroke-width:2.6277;stroke-miterlimit:10;}
	.st14{fill:none;stroke:#000000;stroke-width:3.1532;stroke-miterlimit:10;}
	.st15{fill:none;stroke:#000000;stroke-width:2.978;stroke-miterlimit:10;}
	.st16{fill:none;stroke:#000000;stroke-width:5.8964;stroke-miterlimit:10;}
	.st17{fill:none;stroke:#000000;stroke-width:5.4323;stroke-miterlimit:10;}
	.st18{fill:none;stroke:#000000;stroke-width:3.7713;stroke-miterlimit:10;}
	.st19{fill:none;stroke:#000000;stroke-width:3.7714;stroke-miterlimit:10.0003;}
	.st20{fill:none;stroke:#000000;stroke-width:3.8221;stroke-miterlimit:10;}
	.st21{fill:none;stroke:#000000;stroke-width:2.7026;stroke-miterlimit:10;}
	.st22{fill:none;stroke:#000000;stroke-width:2.8665;stroke-miterlimit:10;}
	.st23{fill:none;stroke:#000000;stroke-width:3.6981;stroke-miterlimit:10;}
	.st24{fill:none;stroke:#000000;stroke-width:3.5231;stroke-miterlimit:10;}
	.st25{fill:none;stroke:#000000;stroke-width:6.5127;stroke-miterlimit:10;}
	.st26{fill:none;stroke:#000000;stroke-width:5.4948;stroke-miterlimit:10;}
	.st27{fill:none;stroke:#000000;stroke-width:5.4948;stroke-miterlimit:9.9999;}
	.st28{fill:none;stroke:#000000;stroke-width:4.0069;stroke-miterlimit:9.9999;}
	.st29{fill:none;stroke:#000000;stroke-width:5.4948;stroke-miterlimit:10;}
	.st30{fill:none;stroke:#000000;stroke-width:3.6632;stroke-miterlimit:10;}
	.st31{fill:none;stroke:#000000;stroke-width:8;stroke-miterlimit:10;}
	.st32{fill:none;stroke:#000000;stroke-width:8.1757;stroke-miterlimit:10;}
</style>
<g id="Layer_1">
	<rect class="st0" width="1920" height="1080"/>
</g>
<g id="Layer_2">
	<g>
		<g id="Layer_2_2_">
			<path class="st1" d="M767.57,808.99v42.31c0,7.77-5.72,14.07-12.78,14.07h-22.95v19.42c0,6.54-4.82,11.85-10.76,11.85h-89.85
				c-5.9,0-10.68-5.27-10.68-11.76v-75.88c0-10.67,7.86-19.32,17.54-19.32h111.93C759.72,789.67,767.57,798.32,767.57,808.99z"/>
			<path class="st1" d="M629.93,874.85v-41.63c0-6.63,5-12.01,11.16-12.01h38.09c6.16,0,11.16,5.38,11.16,12.01v41.63
				c0,6.63-5,12.01-11.16,12.01h-38.09C634.93,886.85,629.93,881.48,629.93,874.85z"/>
			<path class="st1" d="M620.55,884.62v-61.18c0-6.63,5-12.01,11.16-12.01h56.85c6.16,0,11.16,5.38,11.16,12.01v61.18
				c0,6.63-5,12.01-11.16,12.01h-56.85C625.55,896.63,620.55,891.25,620.55,884.62z"/>
			<rect x="670.54" y="773.82" class="st1" width="39.58" height="15.85"/>
			<path class="st1" d="M659.23,765.63v-1.71c0-4.53,3.41-8.2,7.62-8.2h46.97c4.21,0,7.62,3.67,7.62,8.2v1.71
				c0,4.53-3.41,8.2-7.62,8.2h-46.97C662.64,773.82,659.23,770.16,659.23,765.63z"/>
			<g>
				<ellipse class="st1" cx="659.23" cy="854.03" rx="21.2" ry="23.06"/>
				<g>
					<g>
						<path class="st2" d="M671.12,863.87v2.7c0,2.49-1.88,4.51-4.19,4.51h-4.09c-2.32,0-4.19-2.02-4.19-4.51v-14.48h1.53
							C666.22,852.08,671.12,857.36,671.12,863.87z"/>
						<path class="st2" d="M650.1,866.83h-2.51c-2.32,0-4.19-2.02-4.19-4.51v-4.4c0-2.49,1.88-4.51,4.19-4.51h13.45v1.65
							C661.04,861.55,656.14,866.83,650.1,866.83z"/>
						<path class="st2" d="M647.35,844.2v-2.7c0-2.49,1.88-4.51,4.19-4.51h4.09c2.32,0,4.19,2.02,4.19,4.51v14.48h-1.53
							C652.25,855.98,647.35,850.7,647.35,844.2z"/>
						<path class="st2" d="M668.37,841.24h2.51c2.32,0,4.19,2.02,4.19,4.51v4.4c0,2.49-1.88,4.51-4.19,4.51h-13.45v-1.65
							C657.42,846.51,662.32,841.24,668.37,841.24z"/>
					</g>
					<ellipse class="st2" cx="659.23" cy="854.03" rx="5.09" ry="5.54"/>
				</g>
			</g>
			<rect x="699.71" y="818.24" class="st3" width="67.86" height="5.94"/>
			<rect x="699.71" y="818.24" class="st4" width="67.86" height="5.94"/>
			<rect x="732.29" y="830.7" class="st2" width="24.93" height="8.49"/>
			<rect x="732.29" y="839.19" class="st2" width="24.93" height="8.49"/>
			<ellipse class="st2" cx="718.54" cy="881.13" rx="5.2" ry="5.73"/>
		</g>
	</g>
	<g>
		<g>
			<g>
				<path class="st5" d="M1455.61,242.13v-56.08c0-7.42,6.07-13.43,13.56-13.43h47.52c7.49,0,13.56,6.01,13.56,13.43v56.08
					c0,1.42-1.16,2.56-2.59,2.56h-69.46C1456.78,244.7,1455.61,243.55,1455.61,242.13z"/>
				<path class="st6" d="M1461.72,213.3v-16.47c0-5.8,4.15-10.5,9.27-10.5h43.9c5.12,0,9.27,4.7,9.27,10.5v16.47H1461.72z"/>
				<path class="st5" d="M1523.28,226.82v-1.14c0-2.44-1.99-4.41-4.46-4.41h-4.48c-2.46,0-4.46,1.97-4.46,4.41v1.14
					c0,2.44,1.99,4.41,4.46,4.41h4.48C1521.28,231.23,1523.28,229.25,1523.28,226.82z"/>
				<path class="st5" d="M1475.99,226.82v-1.14c0-2.44-1.99-4.41-4.46-4.41h-4.48c-2.46,0-4.46,1.97-4.46,4.41v1.14
					c0,2.44,1.99,4.41,4.46,4.41h4.48C1474,231.23,1475.99,229.25,1475.99,226.82z"/>
				<path class="st5" d="M1455.61,242.13v-5.92h74.65v5.92c0,1.42-1.16,2.56-2.59,2.56h-69.47
					C1456.78,244.7,1455.61,243.55,1455.61,242.13z"/>
				<path class="st5" d="M1455.61,236.21V223c0-5.36,4.39-9.7,9.8-9.7h55.05c5.41,0,9.8,4.34,9.8,9.7v13.2H1455.61z"/>
				<path class="st5" d="M1482.06,231.94v-3.85c0-2.21,1.81-4,4.04-4h13.69c2.23,0,4.04,1.79,4.04,4v3.85c0,2.21-1.81,4-4.04,4
					h-13.69C1483.87,235.94,1482.06,234.15,1482.06,231.94z"/>
			</g>
			<path class="st7" d="M1503.32,230.09c-6.92,0.03-13.84,0.06-20.76,0.09"/>
			<path class="st7" d="M1503.32,233.79c-6.92,0.03-13.84,0.06-20.76,0.09"/>
		</g>
		<g>
			<rect x="1424.92" y="312.81" class="st8" width="136.04" height="15.15"/>
			<path class="st8" d="M1448.16,312.81h-14.36v-54.52c0-3.93,3.22-7.11,7.18-7.11l0,0c3.97,0,7.18,3.18,7.18,7.11L1448.16,312.81
				L1448.16,312.81z"/>
			<rect x="1448.16" y="265.9" class="st8" width="20.55" height="8.08"/>
			<path class="st8" d="M1537.72,312.81h14.36v-54.52c0-3.93-3.22-7.11-7.18-7.11l0,0c-3.97,0-7.18,3.18-7.18,7.11L1537.72,312.81
				L1537.72,312.81z"/>
			<rect x="1517.18" y="265.9" class="st8" width="20.55" height="8.08"/>
		</g>
		<g>
			<rect x="1467.1" y="251.85" class="st5" width="12.92" height="4.55"/>
			<rect x="1505.86" y="251.85" class="st5" width="12.92" height="4.55"/>
			<g>
				<path class="st5" d="M1455.61,259.02v-9.78c0-2.51,2.05-4.54,4.58-4.54h2.31c2.53,0,4.58,2.03,4.58,4.54v9.78
					c0,2.51-2.05,4.54-4.58,4.54h-2.31C1457.67,263.55,1455.61,261.52,1455.61,259.02z"/>
				<path class="st5" d="M1518.78,259.02v-9.78c0-2.51,2.05-4.54,4.58-4.54h2.31c2.53,0,4.58,2.03,4.58,4.54v9.78
					c0,2.51-2.05,4.54-4.58,4.54h-2.31C1520.83,263.55,1518.78,261.52,1518.78,259.02z"/>
				<path class="st5" d="M1505.86,251.85v4.55c-0.02,2.19-2.04,3.96-4.52,3.96h-16.79c-2.49,0-4.51-1.77-4.52-3.96v-4.55
					c0.02-2.19,2.04-3.96,4.52-3.96h16.79C1503.82,247.89,1505.84,249.66,1505.86,251.85z"/>
			</g>
		</g>
	</g>
	<g>
		<line class="st9" x1="313.65" y1="666.23" x2="313.65" y2="650.64"/>
		<path class="st10" d="M328.37,652.19l-0.2-63.77c0-6.95,5.91-12.58,13.2-12.58h83.52v104.69h-25.91 M328.37,666.92
			c0,6.95,5.71,13.61,13,13.61h19.6 M369.17,606.8h-25.85v30.79h25.85c3.07,0,5.56-2.38,5.56-5.31v-20.18
			C374.73,609.18,372.24,606.8,369.17,606.8z"/>
		<path class="st10" d="M398.97,680.53c-3.33-6.83-10.59-11.56-19-11.56c-8.42,0-15.67,4.73-19,11.56
			c-1.25,2.56-1.94,5.41-1.94,8.41c0,11.03,9.38,19.97,20.94,19.97c11.57,0,20.94-8.94,20.94-19.97
			C400.91,685.93,400.22,683.08,398.97,680.53z M379.97,697.15c-4.76,0-8.61-3.68-8.61-8.21s3.86-8.21,8.61-8.21
			s8.61,3.68,8.61,8.21S384.73,697.15,379.97,697.15z"/>
		<ellipse class="st10" cx="379.97" cy="688.94" rx="8.61" ry="8.21"/>
		<ellipse class="st11" cx="379.97" cy="688.94" rx="8.61" ry="8.21"/>
		<path class="st12" d="M366.05,655.21v10.07c0,2.04-1.73,3.69-3.87,3.69h-26.64v-17.45h26.64
			C364.32,651.52,366.05,653.17,366.05,655.21z"/>
		<rect x="321.19" y="655.88" class="st12" width="14.35" height="7.38"/>
		<path class="st12" d="M312.68,649.38c1.86-2.91,1-7.22-2.3-8.9c-2.56-1.3-5.97-1.4-8.59,1.03c-0.4-5.57-6.81-11.47-13.27-11.47
			c-7.94,0-16.08,5.12-15.73,14.26c-4.29,0.52-8.02,3.57-8.84,7.25c-0.82,3.67,1.32,7.7,5.09,9.56c-4.95,3.26-6.2,10-2.66,14.42
			c3.54,4.42,11.29,5.81,16.58,2.97c1.12,5.06,7.23,8.9,13.17,8.26s10.77-5.64,10.42-10.79c2.18,1.48,5.99,0.23,6.46-2.13"/>
		<path class="st12" d="M404.6,648.5v7.38h-20.88v3.75c0,2-1.7,3.63-3.8,3.63h-13.87v-7.38h8.84v-4.45c0-1.62,1.37-2.93,3.07-2.93
			H404.6z"/>
		<path class="st10" d="M409.73,606.8v30.79h-40.57c3.07,0,5.56-2.38,5.56-5.31v-20.18c0-2.93-2.49-5.31-5.56-5.31H409.73z"/>
		<path class="st10" d="M374.73,612.11v20.18c0,2.93-2.49,5.31-5.56,5.31h-25.85V606.8h25.85
			C372.24,606.8,374.73,609.18,374.73,612.11z"/>
		<path class="st13" d="M313.65,663.99c-8.47-0.08-16.95-0.15-25.42-0.22c-1.65-0.02-3.11,1.84-2.88,3.67
			c0.23,1.83,2.08,3.17,3.66,2.65"/>
		<path class="st14" d="M309.02,658.87c-6.61,0.06-13.23,0.12-19.84,0.17c-1.86,0.02-3.72,0.03-5.58,0.05
			c-1.65,0.02-3.11-1.84-2.88-3.67c0.23-1.83,2.08-3.17,3.66-2.65"/>
		<path class="st15" d="M314.87,653.87c-6.62,0.06-13.23,0.12-19.85,0.18c-1.29,0.01-2.42-1.45-2.25-2.89s1.62-2.5,2.86-2.09"/>
	</g>
	<g>
		<g>
			<g>
				<path class="st16" d="M1051.4,451.12V587.1h-161.7V451.12c0-15.82,11.34-28.65,25.33-28.65h111.04
					C1040.06,422.47,1051.4,435.3,1051.4,451.12z"/>
				<path class="st17" d="M905.29,533.62v-52.59c0-12.1,10.96-21.91,24.49-21.91h82.87c13.52,0,24.49,9.81,24.49,21.91v52.59
					L905.29,533.62L905.29,533.62z"/>
				<path class="st16" d="M1036.27,568.03v-8.37c0-4.11-3.33-7.44-7.43-7.44h-14.15c-4.1,0-7.43,3.33-7.43,7.44v8.37
					c0,4.11,3.33,7.44,7.43,7.44h14.15C1032.94,575.47,1036.27,572.14,1036.27,568.03z"/>
				<path class="st16" d="M933.84,568.03v-8.37c0-4.11-3.33-7.44-7.43-7.44h-14.15c-4.1,0-7.43,3.33-7.43,7.44v8.37
					c0,4.11,3.33,7.44,7.43,7.44h14.15C930.52,575.47,933.84,572.14,933.84,568.03z"/>
				<path class="st16" d="M1051.4,587.1v14.89c0,2.73-2.17,4.93-4.84,4.93H894.54c-2.67,0-4.84-2.21-4.84-4.93V587.1H1051.4z"/>
				<path class="st16" d="M1051.4,552.28v34.82h-161.7v-34.82c0-10.3,8.19-18.66,18.3-18.66h125.1
					C1043.21,533.62,1051.4,541.98,1051.4,552.28z"/>
				<path class="st16" d="M994.78,567.13v12.28c0,4.25-3.38,7.69-7.54,7.69h-32.05c-4.17,0-7.54-3.44-7.54-7.69v-12.28
					c0-4.25,3.38-7.69,7.54-7.69h32.05C991.41,559.44,994.78,562.88,994.78,567.13z"/>
			</g>
			<path class="st16" d="M993.69,568.27c-14.99,0.07-29.97,0.15-44.96,0.22"/>
			<path class="st16" d="M993.69,577.76c-14.99,0.07-29.97,0.15-44.96,0.22"/>
			<path class="st16" d="M918.71,606.92v22.42c0,6.15-4.88,11.13-10.91,11.13h-2.92c-6.03,0-10.91-4.98-10.91-11.13v-22.42H918.71
				L918.71,606.92z"/>
			<path class="st16" d="M1045.97,606.92v22.42c0,6.15-4.88,11.13-10.91,11.13h-2.92c-6.03,0-10.91-4.98-10.91-11.13v-22.42H1045.97
				L1045.97,606.92z"/>
		</g>
		<path class="st16" d="M861.55,526.29L861.55,526.29c0-5.46,4.42-9.88,9.87-9.88h6.92c4.56,0,8.25,3.7,8.25,8.26v11.5h-15.17
			C865.97,536.17,861.55,531.75,861.55,526.29z"/>
		<path class="st16" d="M1079.55,526.29L1079.55,526.29c0-5.46-4.42-9.88-9.87-9.88h-6.92c-4.56,0-8.25,3.7-8.25,8.26v11.5h15.17
			C1075.14,536.17,1079.55,531.75,1079.55,526.29z"/>
	</g>
	<g>
		<path class="st18" d="M1531,597.04c0,27.4,23.31,49.61,52.05,49.61v15.92c-37.98,0-68.76-29.34-68.76-65.54
			c0-20.13,9.53-38.15,24.52-50.17c3.84-3.08,8.04-5.76,12.52-7.99c9.49-4.71,20.28-7.38,31.72-7.38v15.92
			C1554.3,547.42,1531,569.64,1531,597.04z"/>
		<path class="st18" d="M1643.8,604.31h7.6c-0.93,8.02-3.37,15.6-7.06,22.48l-6.47-4.25l-8.66,11.97l6.73,4.42
			c-4.93,5.65-10.85,10.5-17.5,14.31l-3.54-6.29l-13.45,6.87l3.09,5.49c-6.76,2.12-13.98,3.26-21.48,3.26V531.5
			c7.5,0,14.73,1.15,21.48,3.26l-3.09,5.49l13.45,6.87l3.54-6.29c3.12,1.79,6.09,3.81,8.86,6.03c3.13,2.51,6.02,5.28,8.64,8.28
			l-6.73,4.42l8.66,11.97l6.47-4.25c3.68,6.88,6.13,14.46,7.06,22.48h-7.6V604.31z"/>
		<path class="st18" d="M1583.05,589.94v14.62c-4.24,0-7.67-3.27-7.67-7.31S1578.82,589.94,1583.05,589.94z"/>
		<path class="st18" d="M1551.33,538.88c-4.49,2.23-8.68,4.91-12.52,7.99l-7.39-10.21l12.4-8.15L1551.33,538.88z"/>
		<polygon class="st19" points="1514.57,530.07 1543.35,511.15 1552.02,523.12 1523.24,542.04 		"/>
		<path class="st18" d="M1583.05,589.94v14.62c-4.24,0-7.67-3.27-7.67-7.31S1578.82,589.94,1583.05,589.94z"/>
		<path class="st18" d="M1626.23,597.04c0,22.18-18.86,40.16-42.13,40.16c-0.35,0-0.7,0-1.04-0.01v-32.62
			c-4.24,0-7.67-3.27-7.67-7.31s3.43-7.31,7.67-7.31v-33.05c0.35-0.01,0.69-0.01,1.04-0.01
			C1607.36,556.88,1626.23,574.86,1626.23,597.04z"/>
		<ellipse class="st19" cx="1583.05" cy="597.25" rx="7.67" ry="7.31"/>
		<path class="st18" d="M1531,597.04c0,27.4,23.31,49.61,52.05,49.61v-42.09c-4.24,0-7.67-3.27-7.67-7.31s3.43-7.31,7.67-7.31
			v-42.52C1554.3,547.42,1531,569.64,1531,597.04z M1544.39,610.5l-4.12,0.84l-2.3-10.26l4.13-0.84l26.09-5.32l2.3,10.26
			L1544.39,610.5z"/>
		<polygon class="st18" points="1570.49,605.18 1544.39,610.5 1540.27,611.34 1537.97,601.08 1542.1,600.24 1568.19,594.92 		"/>
		<path class="st18" d="M1583.38,629.71c14.61,1.09,29.38-8.26,33.98-21.52"/>
		<path class="st18" d="M1583.12,563.7c10.67-0.41,21.42,4.23,28.13,12.14"/>
		<path class="st18" d="M1613.46,579.75c3.65,5.34,5.54,11.75,5.35,18.12"/>
	</g>
	<g>
		<g id="Layer_2_6_">
			<rect x="1388.85" y="819.71" class="st20" width="119.35" height="105.31"/>
			<path class="st20" d="M1363.57,918.17v-91.61c0-7.18,5.75-13,12.85-13h12.42v117.61h-12.42
				C1369.32,931.17,1363.57,925.35,1363.57,918.17z"/>
			<path class="st20" d="M1533.47,918.17v-91.61c0-7.18-5.75-13-12.85-13h-12.42v117.61h12.42
				C1527.71,931.17,1533.47,925.35,1533.47,918.17z"/>
			<g>
				<path class="st20" d="M1484.34,883.44v8.83c0,2.38-1.91,4.31-4.27,4.31h-5.55c0-5.02-4.02-9.08-8.98-9.08s-8.98,4.06-8.98,9.08
					h-18.15c0-5.02-4.02-9.08-8.98-9.08c-4.96,0-8.98,4.06-8.98,9.08h-1.36c-3.53,0-6.39-2.89-6.39-6.46v-41.82
					c0-2.94,2.36-5.33,5.27-5.33l36.04,0.38c5,0,7.62,4.36,9.05,9.15l6.46,19.87h3.88C1479.44,872.37,1484.34,877.32,1484.34,883.44
					z"/>
				<ellipse class="st20" cx="1429.43" cy="896.58" rx="8.98" ry="9.08"/>
				<ellipse class="st20" cx="1465.54" cy="896.58" rx="8.98" ry="9.08"/>
				<path class="st20" d="M1446.16,869.12v-6.78c0-1.79,1.43-3.24,3.21-3.24h1.11c5.59,0,10.13,4.58,10.13,10.24l0,0
					c0,1.67-1.34,3.02-2.99,3.02h-8.25C1447.59,872.37,1446.16,870.92,1446.16,869.12z"/>
				<path class="st20" d="M1420.45,867.91v-4.34c0-2.46,1.97-4.46,4.41-4.46h10.9c2.44,0,4.41,2,4.41,4.46v4.34
					c0,2.46-1.97,4.46-4.41,4.46h-10.9C1422.43,872.37,1420.45,870.37,1420.45,867.91z"/>
				<ellipse class="st21" cx="1474.52" cy="881.33" rx="3.14" ry="3.07"/>
			</g>
			<rect x="1448.52" y="829.05" class="st22" width="51.58" height="7.3"/>
			<rect x="1470.46" y="842.25" class="st22" width="29.84" height="6.73"/>
			<rect x="1475.02" y="854.88" class="st22" width="25.47" height="5.19"/>
			<rect x="1441.09" y="910.74" class="st22" width="58.34" height="5.96"/>
			<rect x="1396.55" y="902.09" class="st22" width="14.24" height="14.6"/>
		</g>
	</g>
	<g>
		<g id="Layer_2_7_">
			<path class="st23" d="M456.95,227.44c-1.7-0.11-3.33-0.48-4.85-1.06v-6.72c0-2.63-2.14-4.76-4.78-4.76h-5.47
				c-0.33-1.3-0.5-2.66-0.5-4.06c0-1.22,0.13-2.41,0.38-3.55c4.37-3.8,10.09-6.9,16.35-6.9c6.26,0,11.98,3.1,16.35,6.9
				c0.25,1.15,0.38,2.33,0.38,3.55c0,1.4-0.17,2.76-0.5,4.06h-5.47c-2.64,0-4.78,2.13-4.78,4.76v5.35"/>
			<path class="st23" d="M456.95,227.44c-1.7-0.11-3.33-0.48-4.85-1.06v-6.72c0-2.63-2.14-4.76-4.78-4.76h-5.47
				c-0.33-1.3-0.5-2.66-0.5-4.06c0-1.22,0.13-2.41,0.38-3.55c1.64-7.48,8.33-13.08,16.35-13.08c8.02,0,14.71,5.6,16.35,13.08
				c0.25,1.15,0.38,2.33,0.38,3.55c0,1.4-0.17,2.76-0.5,4.06h-5.47c-2.64,0-4.78,2.13-4.78,4.76v5.35"/>
			<path class="st23" d="M456.95,227.44c-1.7-0.11-3.33-0.48-4.85-1.06v-6.72c0-2.63-2.14-4.76-4.78-4.76h-5.47
				c-0.33-1.3-0.5-2.66-0.5-4.06c0-1.22,0.13-2.41,0.38-3.55c1.64-7.48,8.33-13.08,16.35-13.08c8.02,0,14.71,5.6,16.35,13.08
				c0.25,1.15,0.38,2.33,0.38,3.55c0,1.4-0.17,2.76-0.5,4.06h-5.47c-2.64,0-4.78,2.13-4.78,4.76v5.35"/>
			<path class="st23" d="M458.08,186.15c-13.73,0-24.86,11.06-24.86,24.7c0,1.38,0.11,2.74,0.33,4.06c0.2,1.19,0.48,2.34,0.84,3.47
				c2.61,8.11,9.32,14.4,17.7,16.46c1.91,0.47,3.92,0.72,5.98,0.72c0.05,0,0.1,0,0.16,0l-1.28-8.1c-1.7-0.11-3.33-0.48-4.85-1.06
				c-5.05-1.92-8.92-6.2-10.26-11.48c-0.33-1.3-0.5-2.66-0.5-4.06c0-1.22,0.13-2.41,0.38-3.55c1.64-7.48,8.33-13.08,16.35-13.08
				c8.02,0,14.71,5.6,16.35,13.08c0.25,1.15,0.38,2.33,0.38,3.55c0,1.4-0.17,2.76-0.5,4.06c-1.32,5.21-5.1,9.44-10.05,11.4
				l1.28,8.11c7.69-2.4,13.77-8.42,16.22-16.04c0.36-1.12,0.64-2.28,0.84-3.47c0.22-1.32,0.33-2.68,0.33-4.06
				C482.93,197.2,471.8,186.15,458.08,186.15z"/>
			<path class="st23" d="M535.83,268.58v36.67c0,3.97-3.22,7.2-7.19,7.2h-8.91c-3.97,0-7.19-3.22-7.19-7.2v-36.67
				c0-3.97,3.22-7.2,7.19-7.2h8.91C532.61,261.38,535.83,264.61,535.83,268.58z"/>
			<path class="st24" d="M535.83,268.58v5.3h-23.29v-5.3c0-3.97,3.22-7.2,7.19-7.2h8.91C532.61,261.38,535.83,264.61,535.83,268.58z
				"/>
			<path class="st24" d="M535.83,286.92v18.33c0,3.97-3.22,7.2-7.19,7.2h-8.91c-3.97,0-7.19-3.22-7.19-7.2v-18.33H535.83z"/>
			<path class="st23" d="M410.16,268.58v36.67c0,3.97-3.22,7.2-7.19,7.2h-8.91c-3.97,0-7.19-3.22-7.19-7.2v-36.67
				c0-3.97,3.22-7.2,7.19-7.2h8.91C406.94,261.38,410.16,264.61,410.16,268.58z"/>
			<path class="st24" d="M512.54,305.25v-5.65h23.29v5.65c0,3.97-3.22,7.2-7.19,7.2h-8.91
				C515.76,312.45,512.54,309.22,512.54,305.25z"/>
			<path class="st24" d="M410.16,268.58v5.3h-23.29v-5.3c0-3.97,3.22-7.2,7.19-7.2h8.91C406.94,261.38,410.16,264.61,410.16,268.58z
				"/>
			<path class="st24" d="M410.16,286.92v18.33c0,3.97-3.22,7.2-7.19,7.2h-8.91c-3.97,0-7.19-3.22-7.19-7.2v-18.33H410.16z"/>
			<path class="st23" d="M424.36,290.98c0.07,0.19,0.16,0.38,0.26,0.56h-14.46v-7.4h14.46c-0.1,0.18-0.18,0.37-0.26,0.56
				c-0.17,0.46-0.26,0.94-0.26,1.44v3.4C424.1,290.04,424.19,290.53,424.36,290.98z"/>
			<path class="st23" d="M512.54,284.14v7.4h-14.46c0.1-0.18,0.18-0.37,0.26-0.56c0.17-0.46,0.26-0.94,0.26-1.44v-3.4
				c0-0.5-0.09-0.99-0.26-1.44c-0.07-0.19-0.16-0.38-0.26-0.56H512.54z"/>
			<path class="st24" d="M386.87,305.25v-5.65h23.29v5.65c0,3.97-3.22,7.2-7.19,7.2h-8.91
				C390.09,312.45,386.87,309.22,386.87,305.25z"/>
			<path class="st23" d="M498.6,286.14v3.4c0,0.5-0.09,0.99-0.26,1.44c-0.07,0.19-0.16,0.38-0.26,0.56
				c-0.89,1.64-2.84,2.78-5.1,2.78h-5.95c0,0-1.4,1.15-3.12,1.15h-45.14c-1.72,0-3.12-1.15-3.12-1.15h-5.95
				c-2.26,0-4.22-1.14-5.1-2.78c-0.1-0.18-0.18-0.37-0.26-0.56c-0.17-0.46-0.26-0.94-0.26-1.44v-3.4c0-0.5,0.09-0.99,0.26-1.44
				c0.07-0.19,0.16-0.38,0.26-0.56c0.89-1.64,2.84-2.78,5.1-2.78h5.95c0,0,1.4-1.15,3.12-1.15h22.65c-0.05-0.38-0.08-0.77-0.08-1.16
				c0-2.43,1.09-4.6,2.8-6.04c1.35-1.14,3.08-1.82,4.97-1.82c0.8,0,1.56,0.12,2.29,0.35c3.17,0.99,5.48,3.98,5.48,7.52
				c0,0.39-0.03,0.78-0.08,1.16h7.13c1.72,0,3.12,1.15,3.12,1.15h5.95c2.26,0,4.21,1.14,5.1,2.78c0.1,0.18,0.18,0.37,0.26,0.56
				C498.51,285.15,498.6,285.64,498.6,286.14z"/>
			<line class="st23" x1="464.26" y1="226.3" x2="464.05" y2="225.01"/>
			<path class="st23" d="M464.05,225.01l-2.13-12.13c-0.3-1.73-1.81-2.98-3.56-2.97l0,0c-2.2,0.01-3.87,1.98-3.53,4.16l2.11,13.38
				l1.28,8.1l5.91,37.47c1.35-1.14,3.08-1.82,4.97-1.82c0.8,0,1.56,0.12,2.29,0.35l-5.86-37.12l-1.28-8.11L464.05,225.01z"/>
		</g>
	</g>
	<g>
		<rect x="1060.73" y="143.37" class="st25" width="120.63" height="93.96"/>
		<rect x="1080.73" y="126.73" class="st25" width="13.48" height="16.64"/>
		<rect x="1147.88" y="126.73" class="st25" width="13.48" height="16.64"/>
		<rect x="1077.88" y="169.36" class="st4" width="19.19" height="7.34"/>
		<polygon class="st4" points="1164.22,169.36 1164.22,176.7 1158.05,176.7 1158.05,183.3 1151.2,183.3 1151.2,176.7 1145.03,176.7 
			1145.03,169.36 1151.2,169.36 1151.2,162.75 1158.05,162.75 1158.05,169.36 		"/>
	</g>
	<g>
		<path class="st26" d="M1178.29,901.41v-49.09c0-4,3.49-7.24,7.79-7.24h6.19c4.3,0,7.79,3.24,7.79,7.24v49.09
			c0,4-3.49,7.24-7.79,7.24h-6.19C1181.78,908.66,1178.29,905.42,1178.29,901.41z"/>
		<path class="st26" d="M1156.5,901.41v-49.09c0-4,3.49-7.24,7.79-7.24h6.19c4.3,0,7.79,3.24,7.79,7.24v49.09
			c0,4-3.49,7.24-7.79,7.24h-6.19C1159.99,908.66,1156.5,905.42,1156.5,901.41z"/>
		<path class="st26" d="M1134.72,901.41v-44.85c0-4,3.49-7.24,7.79-7.24h6.19c4.3,0,7.79,3.24,7.79,7.24v44.85
			c0,4-3.49,7.24-7.79,7.24h-6.19C1138.21,908.66,1134.72,905.42,1134.72,901.41z"/>
		<path class="st26" d="M1112.94,901.41v-40.61c0-4,3.49-7.24,7.79-7.24h6.19c4.3,0,7.79,3.24,7.79,7.24v40.61
			c0,4-3.49,7.24-7.79,7.24h-6.19C1116.43,908.66,1112.94,905.42,1112.94,901.41z"/>
		<path class="st26" d="M1192.27,929.85h-27.97c-4.3,0-7.79-3.24-7.79-7.24v-6.7c0-4,3.49-7.24,7.79-7.24h27.97
			c4.3,0,7.79,3.24,7.79,7.24v6.7C1200.07,926.61,1196.58,929.85,1192.27,929.85z"/>
		<rect x="1146.02" y="951.71" class="st26" width="20.96" height="33"/>
		<rect x="1146.02" y="976.51" class="st26" width="9.76" height="8.21"/>
		<rect x="1146.02" y="960" class="st26" width="9.76" height="8.21"/>
		<rect x="1155.78" y="951.71" class="st26" width="11.2" height="33"/>
		<g>
			<polygon class="st27" points="1120.6,931.63 1135.42,945.4 1110.32,968.74 1095.49,954.96 			"/>
			<polygon class="st27" points="1101.74,949.16 1108.64,955.57 1102.4,961.38 1095.49,954.96 			"/>
			<polygon class="st27" points="1114.29,937.49 1121.19,943.9 1114.95,949.71 1108.05,943.29 			"/>
			<polygon class="st27" points="1127.5,938.04 1135.42,945.4 1110.32,968.74 1102.39,961.38 			"/>
			<ellipse class="st26" cx="1140.57" cy="926.84" rx="17.76" ry="16.51"/>
			
				<ellipse transform="matrix(0.3021 -0.9533 0.9533 0.3021 -82.6328 1733.3267)" class="st28" cx="1142.53" cy="923.1" rx="4.01" ry="4.38"/>
		</g>
		<polygon class="st29" points="1166.54,921.24 1146.47,921.24 1136.44,936.48 1146.47,951.71 1166.54,951.71 1176.57,936.48 		"/>
		<ellipse class="st30" cx="1156.5" cy="933.86" rx="3.73" ry="3.94"/>
		<path class="st30" d="M1152.8,933.39L1152.8,933.39c1.18,0.31,2.42,0.47,3.7,0.47c0.05,0,0.1,0,0.14,0
			c1.23-0.01,2.42-0.17,3.55-0.47h0c2.44-0.63,4.6-1.88,6.27-3.54c1.25-1.24,2.23-2.72,2.86-4.35c0.51-1.32,0.79-2.75,0.79-4.24
			c0-5.51-3.83-10.2-9.16-11.91h0c-1.4-0.45-2.9-0.69-4.46-0.69c-3.39,0-6.48,1.14-8.86,3.03"/>
		<path class="st30" d="M1142.96,919.92c-0.05,0.44-0.08,0.89-0.08,1.35c0,1.49,0.28,2.92,0.79,4.24c0.19,0.49,0.41,0.96,0.66,1.41"
			/>
	</g>
	<ellipse class="st31" cx="694.06" cy="834.87" rx="112" ry="110"/>
	<ellipse class="st31" cx="1492.94" cy="261.63" rx="108" ry="112"/>
	<ellipse class="st31" cx="1121.05" cy="186.15" rx="103" ry="99"/>
	<ellipse class="st31" cx="360.35" cy="636.04" rx="113" ry="112"/>
	<ellipse class="st31" cx="461.35" cy="258.62" rx="109" ry="105"/>
	<circle class="st31" cx="971.5" cy="531.47" r="171.88"/>
	<ellipse class="st31" cx="1154.28" cy="911.33" rx="102" ry="100"/>
	<ellipse class="st32" cx="1448.52" cy="872.37" rx="119" ry="115.5"/>
	<ellipse class="st31" cx="1582.7" cy="589.02" rx="104.5" ry="101.5"/>
	<polyline class="st31" points="799.87,803.31 881.38,773.61 900.72,684.5 	"/>
	<polyline class="st31" points="1074.6,847.09 1033.84,803.57 1018.05,698.46 	"/>
	<polyline class="st31" points="1143.33,530.24 1319.69,527.97 1478.2,572.25 	"/>
	<polyline class="st31" points="1114.15,623.33 1403.57,680.83 1448.52,757.71 	"/>
	<polyline class="st31" points="799.87,498.62 616.63,498.62 461.35,589.87 	"/>
	<polyline class="st31" points="570.35,266.62 779.56,341.98 839.74,419.52 	"/>
	<polyline class="st31" points="1018.05,204.95 971.5,242.51 969.4,358.67 	"/>
	<polyline class="st31" points="1384.94,266.62 1293.81,267.39 1114.59,437.8 	"/>
</g>
</svg>
