<?xml version="1.0" encoding="utf-8"?>
<!-- Generator: Adobe Adobe Illustrator 24.2.0, SVG Export Plug-In . SVG Version: 6.00 Build 0)  -->
<svg version="1.1" id="Layer_1" xmlns="http://www.w3.org/2000/svg" xmlns:xlink="http://www.w3.org/1999/xlink" x="0px" y="0px"
	 width="1152px" height="1152px" viewBox="0 0 1152 1152" style="enable-background:new 0 0 1152 1152;" xml:space="preserve">
<style type="text/css">
	.st0{fill:#F2F2F2;}
	.st1{fill:#6C6F73;stroke:#000000;stroke-width:20;stroke-miterlimit:10;}
	.st2{fill:none;stroke:#000000;stroke-width:20;stroke-miterlimit:10;}
	.st3{fill:#BFBFBF;stroke:#000000;stroke-width:20;stroke-miterlimit:10;}
	.st4{fill:none;stroke:#000000;stroke-width:21.1302;stroke-miterlimit:10;}
	.st5{fill:#0D0D0D;stroke:#000000;stroke-width:20;stroke-miterlimit:10;}
	.st6{fill:#F2F2F2;stroke:#000000;stroke-width:20;stroke-miterlimit:10;}
</style>
<rect class="st0" width="1152" height="1152"/>
<path class="st1" d="M307.58,585.44c0,148.84,120.66,269.5,269.5,269.5v86.5c-196.61,0-356-159.39-356-356
	c0-109.37,49.32-207.22,126.94-272.53c19.87-16.72,41.6-31.3,64.83-43.39c49.14-25.61,104.99-40.08,164.23-40.08v86.5
	C428.24,315.94,307.58,436.6,307.58,585.44z"/>
<path class="st1" d="M891.58,624.94h39.33c-4.8,43.56-17.47,84.74-36.55,122.11l-33.48-23.09l-44.86,65.03l34.83,24.02
	c-25.55,30.71-56.17,57.05-90.58,77.74l-18.33-34.19l-69.62,37.34l15.99,29.81c-35,11.51-72.39,17.73-111.23,17.73v-712
	c38.85,0,76.24,6.22,111.23,17.73l-15.99,29.81l69.62,37.34l18.33-34.18c16.17,9.71,31.51,20.68,45.87,32.77
	c16.2,13.63,31.17,28.68,44.71,44.96l-34.83,24.02l44.86,65.03l33.49-23.1c19.07,37.37,31.73,78.56,36.54,122.12h-39.33V624.94z"/>
<path class="st2" d="M577.08,546.89v79.42c-21.93,0-39.71-17.78-39.71-39.71S555.16,546.89,577.08,546.89z"/>
<path class="st3" d="M412.86,269.52c-23.23,12.09-44.96,26.67-64.83,43.39l-38.24-55.44l64.21-44.29L412.86,269.52z"/>
<rect x="228.96" y="163.31" transform="matrix(0.8232 -0.5678 0.5678 0.8232 -58.6654 217.237)" class="st1" width="181" height="79"/>
<path class="st2" d="M577.08,546.89v79.42c-21.93,0-39.71-17.78-39.71-39.71S555.16,546.89,577.08,546.89z"/>
<path class="st3" d="M800.62,585.44c0,120.47-97.66,218.14-218.14,218.14c-1.81,0-3.61-0.02-5.4-0.07v-177.2
	c-21.93,0-39.71-17.78-39.71-39.71s17.78-39.71,39.71-39.71V367.37c1.79-0.05,3.59-0.07,5.4-0.07
	C702.96,367.3,800.62,464.97,800.62,585.44z"/>
<ellipse transform="matrix(0.9239 -0.3827 0.3827 0.9239 -180.5552 265.4933)" class="st5" cx="577.08" cy="586.6" rx="39.71" ry="39.71"/>
<path class="st6" d="M307.58,585.44c0,148.84,120.66,269.5,269.5,269.5V626.31c-21.93,0-39.71-17.78-39.71-39.71
	s17.78-39.71,39.71-39.71V315.94C428.24,315.94,307.58,436.6,307.58,585.44z M376.92,658.59l-21.32,4.56l-11.93-55.74l21.37-4.57
	l135.08-28.92l11.93,55.74L376.92,658.59z"/>
<polygon class="st5" points="512.05,629.66 376.92,658.59 355.6,663.15 343.67,607.41 365.04,602.84 500.12,573.92 "/>
<path class="st2" d="M578.79,762.9c75.65,5.92,152.09-44.88,175.94-116.91"/>
<path class="st2" d="M577.45,404.37c55.23-2.23,110.9,22.99,145.65,65.97"/>
<path class="st2" d="M734.54,491.54c18.88,29.01,28.67,63.84,27.68,98.44"/>
</svg>
