<?xml version="1.0" encoding="utf-8"?>
<!-- Generator: Adobe Adobe Illustrator 24.2.0, SVG Export Plug-In . SVG Version: 6.00 Build 0)  -->
<svg version="1.1" xmlns="http://www.w3.org/2000/svg" xmlns:xlink="http://www.w3.org/1999/xlink" x="0px" y="0px" width="1152px"
	 height="1152px" viewBox="0 0 1152 1152" style="enable-background:new 0 0 1152 1152;" xml:space="preserve">
<style type="text/css">
	.st0{fill:#F2F2F2;}
	.st1{fill:#6C6F73;stroke:#0D0D0D;stroke-width:20;stroke-miterlimit:10;}
	.st2{fill:none;stroke:#0D0D0D;stroke-width:20;stroke-miterlimit:10;}
	.st3{fill:#3B3C40;stroke:#0D0D0D;stroke-width:20;stroke-miterlimit:10;}
	.st4{fill:#3B3C40;stroke:#0D0D0D;stroke-width:19.0537;stroke-miterlimit:10;}
	.st5{fill:#BFBFBF;stroke:#0D0D0D;stroke-width:20;stroke-miterlimit:10;}
</style>
<g id="Layer_1">
	<rect class="st0" width="1152" height="1152"/>
</g>
<g id="Layer_2">
	<path class="st1" d="M552.21,457.86c-9.2-0.6-18.03-2.57-26.27-5.71v-36.34c0-14.2-11.59-25.71-25.89-25.71h-29.61
		c-1.78-7.02-2.72-14.37-2.72-21.94c0-6.59,0.71-13.02,2.08-19.21c23.65-20.52,54.6-37.28,88.49-37.28
		c33.88,0,64.83,16.76,88.48,37.28c1.37,6.19,2.08,12.62,2.08,19.21c0,7.57-0.94,14.92-2.71,21.94h-29.62
		c-14.3,0-25.89,11.51-25.89,25.71v28.9"/>
	<path class="st2" d="M552.21,457.86c-9.2-0.6-18.03-2.57-26.27-5.71v-36.34c0-14.2-11.59-25.71-25.89-25.71h-29.61
		c-1.78-7.02-2.72-14.37-2.72-21.94c0-6.59,0.71-13.02,2.08-19.21c8.85-40.41,45.1-70.68,88.49-70.68
		c43.37,0,79.62,30.27,88.48,70.68c1.37,6.19,2.08,12.62,2.08,19.21c0,7.57-0.94,14.92-2.71,21.94h-29.62
		c-14.3,0-25.89,11.51-25.89,25.71v28.9"/>
	<path class="st2" d="M552.21,457.86c-9.2-0.6-18.03-2.57-26.27-5.71v-36.34c0-14.2-11.59-25.71-25.89-25.71h-29.61
		c-1.78-7.02-2.72-14.37-2.72-21.94c0-6.59,0.71-13.02,2.08-19.21c8.85-40.41,45.1-70.68,88.49-70.68
		c43.37,0,79.62,30.27,88.48,70.68c1.37,6.19,2.08,12.62,2.08,19.21c0,7.57-0.94,14.92-2.71,21.94h-29.62
		c-14.3,0-25.89,11.51-25.89,25.71v28.9"/>
	<path class="st3" d="M558.29,234.66c-74.29,0-134.5,59.77-134.5,133.5c0,7.47,0.61,14.8,1.8,21.94c1.08,6.41,2.6,12.66,4.55,18.73
		c14.11,43.83,50.41,77.83,95.8,88.95c10.36,2.54,21.2,3.88,32.35,3.88c0.28,0,0.56,0,0.84-0.01l-6.92-43.79
		c-9.2-0.6-18.03-2.57-26.27-5.71c-27.33-10.37-48.29-33.51-55.5-62.05c-1.78-7.02-2.72-14.37-2.72-21.94
		c0-6.59,0.71-13.02,2.08-19.21c8.85-40.41,45.1-70.68,88.49-70.68c43.37,0,79.62,30.27,88.48,70.68
		c1.37,6.19,2.08,12.62,2.08,19.21c0,7.57-0.94,14.92-2.71,21.94c-7.12,28.15-27.62,51.05-54.4,61.61l6.92,43.83
		c41.61-12.98,74.5-45.5,87.78-86.71c1.95-6.07,3.47-12.32,4.55-18.73c1.18-7.14,1.8-14.47,1.8-21.94
		C692.79,294.43,632.56,234.66,558.29,234.66z"/>
	<path class="st3" d="M979,680.24v198.2c0,21.48-17.42,38.9-38.9,38.9h-48.2c-21.49,0-38.9-17.42-38.9-38.9v-198.2
		c0-21.48,17.41-38.9,38.9-38.9h48.2C961.58,641.34,979,658.76,979,680.24z"/>
	<path class="st4" d="M979,680.24v28.67H853v-28.67c0-21.48,17.41-38.9,38.9-38.9h48.2C961.58,641.34,979,658.76,979,680.24z"/>
	<path class="st4" d="M979,779.34v99.1c0,21.48-17.42,38.9-38.9,38.9h-48.2c-21.49,0-38.9-17.42-38.9-38.9v-99.1H979z"/>
	<path class="st3" d="M299,680.24v198.2c0,21.48-17.42,38.9-38.9,38.9h-48.2c-21.49,0-38.9-17.42-38.9-38.9v-198.2
		c0-21.48,17.41-38.9,38.9-38.9h48.2C281.58,641.34,299,658.76,299,680.24z"/>
	<path class="st4" d="M853,878.44v-30.53h126v30.53c0,21.48-17.42,38.9-38.9,38.9h-48.2C870.41,917.34,853,899.92,853,878.44z"/>
	<path class="st4" d="M299,680.24v28.67H173v-28.67c0-21.48,17.41-38.9,38.9-38.9h48.2C281.58,641.34,299,658.76,299,680.24z"/>
	<path class="st4" d="M299,779.34v99.1c0,21.48-17.42,38.9-38.9,38.9h-48.2c-21.49,0-38.9-17.42-38.9-38.9v-99.1H299z"/>
	<path class="st5" d="M375.84,801.32c0.38,1.04,0.84,2.05,1.38,3.02H299v-40h78.22c-0.53,0.98-0.99,1.98-1.38,3.02
		c-0.93,2.46-1.42,5.08-1.42,7.79v18.38C374.42,796.24,374.91,798.86,375.84,801.32z"/>
	<path class="st5" d="M853,764.34v40h-78.22c0.54-0.97,1-1.98,1.38-3.02c0.93-2.46,1.42-5.08,1.42-7.79v-18.38
		c0-2.71-0.49-5.33-1.42-7.79c-0.39-1.04-0.85-2.04-1.38-3.02H853z"/>
	<path class="st4" d="M173,878.44v-30.53h126v30.53c0,21.48-17.42,38.9-38.9,38.9h-48.2C190.41,917.34,173,899.92,173,878.44z"/>
	<path class="st1" d="M777.58,775.15v18.38c0,2.71-0.49,5.33-1.42,7.79c-0.38,1.04-0.84,2.05-1.38,3.02c-4.8,8.86-15.36,15-27.61,15
		H715c0,0-7.55,6.23-16.87,6.23H453.87c-9.32,0-16.87-6.23-16.87-6.23h-32.17c-12.25,0-22.81-6.14-27.61-15
		c-0.54-0.97-1-1.98-1.38-3.02c-0.93-2.46-1.42-5.08-1.42-7.79v-18.38c0-2.71,0.49-5.33,1.42-7.79c0.39-1.04,0.85-2.04,1.38-3.02
		c4.81-8.86,15.36-15,27.61-15H437c0,0,7.55-6.23,16.87-6.23h122.58c-0.29-2.04-0.45-4.14-0.45-6.27c0-13.13,5.88-24.87,15.13-32.66
		c7.28-6.14,16.65-9.84,26.87-9.84c4.31,0,8.46,0.66,12.37,1.87c17.16,5.35,29.63,21.52,29.63,40.63c0,2.13-0.16,4.23-0.45,6.27
		h38.58c9.32,0,16.87,6.23,16.87,6.23h32.17c12.25,0,22.8,6.14,27.61,15c0.53,0.98,0.99,1.98,1.38,3.02
		C777.09,769.82,777.58,772.44,777.58,775.15z"/>
	<line class="st2" x1="591.74" y1="451.71" x2="590.63" y2="444.71"/>
	<path class="st5" d="M590.63,444.71l-11.5-65.54c-1.64-9.34-9.78-16.13-19.26-16.08l0,0c-11.9,0.07-20.93,10.72-19.08,22.47
		l11.42,72.3l6.92,43.79l32,202.53c7.28-6.14,16.65-9.84,26.87-9.84c4.31,0,8.46,0.66,12.37,1.87l-31.71-200.67l-6.92-43.83
		L590.63,444.71z"/>
</g>
</svg>
