<?xml version="1.0" encoding="utf-8"?>
<!-- Generator: Adobe Adobe Illustrator 24.2.0, SVG Export Plug-In . SVG Version: 6.00 Build 0)  -->
<svg version="1.1" id="Layer_2" xmlns="http://www.w3.org/2000/svg" xmlns:xlink="http://www.w3.org/1999/xlink" x="0px" y="0px"
	 width="1152px" height="1152px" viewBox="0 0 1152 1152" style="enable-background:new 0 0 1152 1152;" xml:space="preserve">
<style type="text/css">
	.st0{fill:#F2F2F2;}
	.st1{fill:#BFBFBF;stroke:#000000;stroke-width:30;stroke-miterlimit:10;}
	.st2{fill:#6C6F73;stroke:#000000;stroke-width:30;stroke-miterlimit:10;}
	.st3{fill:#F2F2F2;stroke:#000000;stroke-width:21.8767;stroke-miterlimit:10;}
	.st4{fill:#F2F2F2;stroke:#000000;stroke-width:20;stroke-miterlimit:10;}
	.st5{fill:none;stroke:#000000;stroke-width:20;stroke-miterlimit:10;}
</style>
<g id="Layer_3">
	<rect class="st0" width="1152" height="1152"/>
</g>
<path class="st1" d="M692.65,499.66V221.65c0-22.66,18.37-41.02,41.02-41.02h32.6c22.66,0,41.02,18.37,41.02,41.02v278.01
	c0,22.66-18.37,41.02-41.02,41.02h-32.6C711.02,540.68,692.65,522.32,692.65,499.66z"/>
<path class="st1" d="M578,499.66V221.65c0-22.66,18.37-41.02,41.02-41.02h32.6c22.66,0,41.02,18.37,41.02,41.02v278.01
	c0,22.66-18.37,41.02-41.02,41.02h-32.6C596.37,540.68,578,522.32,578,499.66z"/>
<path class="st1" d="M463.35,499.66V245.71c0-22.66,18.37-41.02,41.02-41.02h32.6c22.66,0,41.02,18.37,41.02,41.02v253.95
	c0,22.66-18.37,41.02-41.02,41.02h-32.6C481.72,540.68,463.35,522.32,463.35,499.66z"/>
<path class="st1" d="M348.7,499.66V269.71c0-22.66,18.37-41.02,41.02-41.02h32.6c22.66,0,41.02,18.37,41.02,41.02v229.95
	c0,22.66-18.37,41.02-41.02,41.02h-32.6C367.07,540.68,348.7,522.32,348.7,499.66z"/>
<path class="st1" d="M766.27,660.68H619.02c-22.66,0-41.02-18.37-41.02-41.02v-37.95c0-22.66,18.37-41.02,41.02-41.02h147.25
	c22.66,0,41.02,18.37,41.02,41.02v37.95C807.3,642.32,788.93,660.68,766.27,660.68z"/>
<rect x="522.83" y="784.49" class="st2" width="110.35" height="186.89"/>
<rect x="522.83" y="924.89" class="st2" width="51.38" height="46.48"/>
<rect x="522.83" y="831.45" class="st2" width="51.38" height="46.48"/>
<rect x="574.2" y="784.49" class="st2" width="58.97" height="186.89"/>
<g>
	
		<rect x="306.76" y="682.39" transform="matrix(0.7071 0.7071 -0.7071 0.7071 654.6034 -28.6875)" class="st2" width="110.35" height="186.89"/>
	
		<rect x="265.75" y="781.38" transform="matrix(0.7071 0.7071 -0.7071 0.7071 654.3152 29.5883)" class="st2" width="51.38" height="46.48"/>
	
		<rect x="331.83" y="715.31" transform="matrix(0.7071 0.7071 -0.7071 0.7071 626.9463 -36.486)" class="st2" width="51.38" height="46.48"/>
	
		<rect x="350.61" y="700.55" transform="matrix(0.7071 0.7071 -0.7071 0.7071 672.7673 -36.2112)" class="st2" width="58.97" height="186.89"/>
	<circle class="st2" cx="494.12" cy="643.64" r="93.5"/>
	
		<ellipse transform="matrix(0.7071 -0.7071 0.7071 0.7071 -292.3954 539.0327)" class="st3" cx="504.47" cy="622.47" rx="22.29" ry="23.47"/>
</g>
<polygon class="st2" points="630.8,611.95 525.2,611.95 472.4,698.22 525.2,784.49 630.8,784.49 683.6,698.22 "/>
<ellipse class="st4" cx="578" cy="683.42" rx="19.62" ry="22.29"/>
<path class="st5" d="M558.52,680.75h0.01c6.19,1.74,12.72,2.67,19.47,2.67c0.25,0,0.51,0,0.76-0.01c6.48-0.06,12.75-0.98,18.71-2.66
	h0.01c12.82-3.58,24.19-10.63,33.01-20.07c6.59-7.03,11.76-15.38,15.07-24.61c2.7-7.5,4.17-15.59,4.17-24.02
	c0-31.22-20.15-57.76-48.22-67.45h-0.01c-7.36-2.54-15.27-3.92-23.5-3.92c-17.82,0-34.12,6.47-46.66,17.17"/>
<path class="st5" d="M506.68,604.43c-0.27,2.5-0.41,5.04-0.41,7.62c0,8.43,1.47,16.52,4.17,24.02c0.98,2.75,2.14,5.43,3.45,8.01"/>
</svg>
