<?xml version="1.0" encoding="utf-8"?>
<!-- Generator: Adobe Adobe Illustrator 24.2.0, SVG Export Plug-In . SVG Version: 6.00 Build 0)  -->
<svg version="1.1" id="Layer_1" xmlns="http://www.w3.org/2000/svg" xmlns:xlink="http://www.w3.org/1999/xlink" x="0px" y="0px"
	 width="1152px" height="1152px" viewBox="0 0 1152 1152" style="enable-background:new 0 0 1152 1152;" xml:space="preserve">
<style type="text/css">
	.st0{fill:#BFBFBF;stroke:#0D0D0D;stroke-width:20.9504;stroke-miterlimit:10;}
	.st1{fill:#BFBFBF;stroke:#0D0D0D;stroke-width:21.1107;stroke-miterlimit:10;}
	.st2{fill:#F2F2F2;}
</style>
<path class="st0" d="M400.64,950.94h227v-81.21h115.41c0.21,0,0.41,0,0.61,0.01c23.62,0.33,42.66,19.96,42.66,44.12
	c0,12.19-4.84,23.22-12.67,31.21C765.81,953.06,755,958,743.05,958H400.64"/>
<path class="st1" d="M463.86,604.92l-91.19,71.96C359.53,687.26,352,702.17,352,717.84V604.92H463.86z"/>
<rect x="627.64" y="604.92" class="st0" width="116.02" height="346.01"/>
<rect class="st2" width="1152" height="1152"/>
<path class="st0" d="M800,825.6c0,12.19-4.84,23.22-12.67,31.21c-7.83,7.99-18.65,12.93-30.59,12.93h-129.1v-88.27h129.1
	C780.63,781.46,800,801.22,800,825.6z"/>
<path class="st0" d="M800,649.06c0,12.19-4.84,23.22-12.67,31.21c-7.83,7.99-18.65,12.93-30.59,12.93h-129.1v-88.27h129.1
	C780.63,604.92,800,624.68,800,649.06z"/>
<path class="st0" d="M800,737.33c0,12.19-4.84,23.22-12.67,31.21c-7.83,7.99-18.65,12.93-30.59,12.93h-129.1v-88.27h129.1
	C780.63,693.19,800,712.95,800,737.33z"/>
<path class="st0" d="M800,910.33c0,11.21-4.84,21.36-12.67,28.71c-7.83,7.35-18.65,11.89-30.59,11.89h-129.1v-81.21h129.1
	C780.63,869.73,800,887.91,800,910.33z"/>
<g>
	<line class="st1" x1="427.56" y1="434.25" x2="427.56" y2="434.78"/>
	<path class="st1" d="M663.41,364.67c11.41,0.04,22.82,0.07,34.24,0H663.41z M630,364.67h33.41
		C652.27,364.64,641.14,364.61,630,364.67z"/>
	<path class="st1" d="M639.92,237.24h-66.81v-2.42c0-53.28-88.66-54.26-88.66,0.73v1.7h-70.36c-34.29,0-62.09,25.59-62.09,57.17
		v97.49c0,23.39,20.59,42.35,46,42.35h86.46v57.87h-40.4c-9.11,0-16.49-6.79-16.49-15.18v-42.16H352v70.04
		c0,31.41,27.66,56.88,61.78,56.88h70.67l-1.53,43.23l0,0l-84,71.96c-12.11,10.37-19.05,25.28-19.05,40.95v189.67
		c0,23.99,20.07,43.43,44.8,43.43h238.9V604.92h-90.47V561.7h66.81c36.24,0,65.63-27.06,65.63-60.43V297.66
		C705.55,264.3,676.16,237.24,639.92,237.24z M447.77,364.68c-11.16,0-20.21-8.33-20.21-18.6v-17.43
		c0-12.06,10.62-21.84,23.73-21.84h33.16v57.88H447.77z M630,476.94c0,8.39-7.39,15.18-16.49,15.18h-40.4v-57.87h46.64
		c5.66,0,10.25,4.22,10.25,9.44V476.94z M663.41,364.67H630v0.01h-56.89v-57.88h39.52c9.59,0,17.37,7.16,17.37,15.99v41.88
		C641.14,364.61,652.27,364.64,663.41,364.67h34.24C686.24,364.74,674.83,364.71,663.41,364.67z"/>
	<path class="st1" d="M663.41,364.67H630C641.14,364.61,652.27,364.64,663.41,364.67z"/>
	<path class="st1" d="M697.66,364.67c-11.42,0.07-22.83,0.04-34.24,0H697.66z"/>
</g>
</svg>
