<?xml version="1.0" encoding="utf-8"?>
<!-- Generator: Adobe Adobe Illustrator 24.2.0, SVG Export Plug-In . SVG Version: 6.00 Build 0)  -->
<svg version="1.1" xmlns="http://www.w3.org/2000/svg" xmlns:xlink="http://www.w3.org/1999/xlink" x="0px" y="0px" width="1152px"
	 height="1152px" viewBox="0 0 1152 1152" style="enable-background:new 0 0 1152 1152;" xml:space="preserve">
<style type="text/css">
	.st0{fill:#F2F2F2;}
	.st1{fill:#6C6F73;stroke:#000000;stroke-width:20;stroke-miterlimit:10;}
	.st2{fill:none;stroke:#36C9C7;stroke-width:20;stroke-miterlimit:10;}
	.st3{fill:#BFBFBF;stroke:#000000;stroke-width:15;stroke-miterlimit:10;}
	.st4{fill:none;stroke:#36C9C7;stroke-width:15;stroke-miterlimit:10;}
	.st5{fill:#6C6F73;stroke:#000000;stroke-width:15;stroke-miterlimit:10;}
	.st6{fill:#3B3C40;stroke:#000000;stroke-width:15;stroke-miterlimit:10;}
	.st7{fill:none;stroke:#000000;stroke-width:15;stroke-miterlimit:10;}
	.st8{fill:#BFBFBF;stroke:#000000;stroke-width:20;stroke-miterlimit:10;}
</style>
<g id="Layer_1">
	<rect class="st0" width="1152" height="1152"/>
</g>
<g id="Layer_2">
	<rect x="312" y="605.7" class="st1" width="528" height="384"/>
	<ellipse class="st3" cx="737.05" cy="293.8" rx="80.52" ry="81.5"/>
	<rect x="717.42" y="240.3" width="39.25" height="107"/>
	<g>
		<rect x="340.76" y="262.25" class="st3" width="166.25" height="55.11"/>
		<rect x="429.73" y="317.36" class="st3" width="28.5" height="34.5"/>
		<rect x="478.51" y="317.36" class="st3" width="28.5" height="34.5"/>
		<rect x="340.76" y="293.8" class="st5" width="166.25" height="23.56"/>
		<path class="st6" d="M240.23,310.85v-34.1c0-24.27,19.68-43.95,43.95-43.95h83.05v122h-83.05
			C259.91,354.8,240.23,335.12,240.23,310.85z"/>
		<circle class="st7" cx="303.73" cy="289.8" r="18.75"/>
	</g>
	<rect x="399.54" y="537.7" class="st8" width="59" height="68"/>
	<rect x="693.46" y="537.7" class="st8" width="59" height="68"/>
	<rect x="680.96" y="711.91" width="84" height="30"/>
	<rect x="387.04" y="711.91" width="84" height="30"/>
	<rect x="680.96" y="711.91" transform="matrix(6.123234e-17 -1 1 6.123234e-17 -3.9471 1449.877)" width="84" height="30"/>
</g>
</svg>
