<?xml version="1.0" encoding="utf-8"?>
<!-- Generator: Adobe Adobe Illustrator 24.2.0, SVG Export Plug-In . SVG Version: 6.00 Build 0)  -->
<svg version="1.1" xmlns="http://www.w3.org/2000/svg" xmlns:xlink="http://www.w3.org/1999/xlink" x="0px" y="0px" width="1152px"
	 height="1152px" viewBox="0 0 1152 1152" style="enable-background:new 0 0 1152 1152;" xml:space="preserve">
<style type="text/css">
	.st0{fill:#F2F2F2;}
	.st1{fill:none;stroke:#6C6F73;stroke-width:20;stroke-miterlimit:10;}
	.st2{fill:none;stroke:#0D0D0D;stroke-width:20;stroke-miterlimit:10;}
</style>
<g id="Layer_1">
	<rect class="st0" width="1152" height="1152"/>
</g>
<g id="Layer_2">
	<path class="st1" d="M875,630.47v46.1c0,21.48,17.41,38.9,38.9,38.9h48.2c21.48,0,38.9-17.42,38.9-38.9v-198.2
		c0-21.48-17.42-38.9-38.9-38.9h-48.2c-21.49,0-38.9,17.42-38.9,38.9v46.1"/>
	<path class="st1" d="M277,630.47v43.16c0,21.48-17.42,38.9-38.9,38.9h-48.2c-21.49,0-38.9-17.42-38.9-38.9v-198.2
		c0-21.48,17.41-38.9,38.9-38.9h48.2c21.48,0,38.9,17.42,38.9,38.9v49.04"/>
	<path class="st2" d="M375.84,596.51c0.38,1.04,0.84,2.05,1.38,3.02H299v-40h78.22c-0.53,0.98-0.99,1.98-1.38,3.02
		c-0.93,2.46-1.42,5.08-1.42,7.79v18.38C374.42,591.43,374.91,594.05,375.84,596.51z"/>
	<path class="st2" d="M853,559.53v40h-78.22c0.54-0.97,1-1.98,1.38-3.02c0.93-2.46,1.42-5.08,1.42-7.79v-18.38
		c0-2.71-0.49-5.33-1.42-7.79c-0.39-1.04-0.85-2.04-1.38-3.02H853z"/>
	<path class="st2" d="M777.58,570.34v18.38c0,2.71-0.49,5.33-1.42,7.79c-0.38,1.04-0.84,2.05-1.38,3.02c-4.8,8.86-15.36,15-27.61,15
		H715c0,0-7.55,6.23-16.87,6.23H453.87c-9.32,0-16.87-6.23-16.87-6.23h-32.17c-12.25,0-22.81-6.14-27.61-15
		c-0.54-0.97-1-1.98-1.38-3.02c-0.93-2.46-1.42-5.08-1.42-7.79v-18.38c0-2.71,0.49-5.33,1.42-7.79c0.39-1.04,0.85-2.04,1.38-3.02
		c4.81-8.86,15.36-15,27.61-15H437c0,0,7.55-6.23,16.87-6.23h122.58c-0.29-2.04-0.45-4.14-0.45-6.27c0-13.13,5.88-24.87,15.13-32.66
		c7.28-6.14,16.65-9.84,26.87-9.84c4.31,0,8.46,0.66,12.37,1.87c17.16,5.35,29.63,21.52,29.63,40.63c0,2.13-0.16,4.23-0.45,6.27
		h38.58c9.32,0,16.87,6.23,16.87,6.23h32.17c12.25,0,22.8,6.14,27.61,15c0.53,0.98,0.99,1.98,1.38,3.02
		C777.09,565.01,777.58,567.63,777.58,570.34z"/>
	<line class="st2" x1="714.52" y1="544.92" x2="713.96" y2="611.27"/>
	<line class="st2" x1="437.54" y1="616.06" x2="437.64" y2="543.35"/>
	<path class="st2" d="M255,612.84v-70.73c0-9.74,7.89-17.63,17.63-17.63h8.73c9.74,0,17.63,7.89,17.63,17.63v70.73
		c0,9.74-7.89,17.63-17.63,17.63h-8.73C262.89,630.47,255,622.58,255,612.84z"/>
	<path class="st2" d="M853,612.84v-70.73c0-9.74,7.89-17.63,17.63-17.63h8.73c9.74,0,17.63,7.89,17.63,17.63v70.73
		c0,9.74-7.89,17.63-17.63,17.63h-8.73C860.89,630.47,853,622.58,853,612.84z"/>
</g>
</svg>
