<?xml version="1.0" encoding="utf-8"?>
<!-- Generator: Adobe Adobe Illustrator 24.2.0, SVG Export Plug-In . SVG Version: 6.00 Build 0)  -->
<svg version="1.1" id="Layer_1" xmlns="http://www.w3.org/2000/svg" xmlns:xlink="http://www.w3.org/1999/xlink" x="0px" y="0px"
	 width="1152px" height="1152px" viewBox="0 0 1152 1152" style="enable-background:new 0 0 1152 1152;" xml:space="preserve">
<style type="text/css">
	.st0{fill:none;stroke:#0D0D0D;stroke-width:22.1245;stroke-miterlimit:10;}
	.st1{fill:#F2F2F2;}
	.st2{fill:none;stroke:#0D0D0D;stroke-width:30;stroke-miterlimit:10;}
	.st3{fill:none;stroke:#0D0D0D;stroke-width:25;stroke-miterlimit:10;}
	.st4{fill:#3B3C40;stroke:#0D0D0D;stroke-width:20;stroke-miterlimit:10;}
	.st5{fill:#6C6F73;stroke:#0D0D0D;stroke-width:20;stroke-miterlimit:10;}
	.st6{fill:#BFBFBF;stroke:#0D0D0D;stroke-width:20;stroke-miterlimit:10;}
	.st7{fill:none;stroke:#0D0D0D;stroke-width:15;stroke-miterlimit:10;}
	.st8{fill:none;stroke:#0D0D0D;stroke-width:18;stroke-miterlimit:10;}
	.st9{fill:none;stroke:#0D0D0D;stroke-width:17;stroke-miterlimit:10;}
</style>
<line class="st0" x1="404.97" y1="715.46" x2="404.97" y2="624.34"/>
<rect class="st1" width="1152" height="1152"/>
<path class="st2" d="M487.03,633.39l-1.11-372.78c0-40.63,32.93-73.57,73.57-73.57h465.54v612H880.59 M487.03,719.47
	c0,40.63,31.82,79.57,72.46,79.57h109.26 M714.46,368.04h-144.1v180h144.1c17.13,0,31.02-13.89,31.02-31.02V399.06
	C745.48,381.93,731.59,368.04,714.46,368.04z"/>
<path class="st2" d="M880.59,799.04c-18.56-39.91-59.01-67.58-105.92-67.58c-46.91,0-87.36,27.67-105.92,67.58
	c-6.95,14.94-10.83,31.6-10.83,49.17c0,64.48,52.27,116.75,116.75,116.75s116.75-52.27,116.75-116.75
	C891.42,830.64,887.54,813.98,880.59,799.04z M774.67,896.21c-26.51,0-48-21.49-48-48c0-26.51,21.49-48,48-48
	c26.51,0,48,21.49,48,48C822.67,874.72,801.18,896.21,774.67,896.21z"/>
<circle class="st2" cx="774.67" cy="848.21" r="48"/>
<circle class="st3" cx="774.67" cy="848.21" r="48"/>
<path class="st4" d="M697.1,651.03v58.86c0,11.91-9.66,21.57-21.57,21.57h-148.5v-102h148.5
	C687.44,629.46,697.1,639.12,697.1,651.03z"/>
<rect x="447.03" y="654.96" class="st5" width="80" height="43.14"/>
<path class="st6" d="M399.57,616.96c10.38-17,5.6-42.21-12.84-52.03c-14.25-7.58-33.27-8.2-47.9,6.02
	c-2.23-32.54-37.98-67.05-73.98-67.05c-44.25,0-89.61,29.92-87.67,83.37c-23.94,3.05-44.68,20.89-49.25,42.37
	c-4.57,21.47,7.37,45,28.35,55.87c-27.62,19.04-34.55,58.46-14.83,84.31c19.72,25.85,62.94,33.98,92.42,17.38
	c6.26,29.59,40.33,52.01,73.39,48.3c33.06-3.71,60.03-32.99,58.11-63.06c12.14,8.67,33.37,1.33,36.03-12.45"/>
<path class="st5" d="M911.99,611.82v43.14H795.61v21.95c0,11.71-9.49,21.2-21.2,21.2H697.1v-43.15h49.26v-26.02
	c0-9.45,7.66-17.12,17.12-17.12H911.99z"/>
<path class="st2" d="M940.59,368.04v180H714.46c17.13,0,31.02-13.89,31.02-31.02V399.06c0-17.13-13.89-31.02-31.02-31.02H940.59z"/>
<path class="st2" d="M745.48,399.06v117.96c0,17.13-13.89,31.02-31.02,31.02h-144.1v-180h144.1
	C731.59,368.04,745.48,381.93,745.48,399.06z"/>
<path class="st7" d="M404.97,702.39c-47.24-0.44-94.48-0.87-141.72-1.31c-9.2-0.09-17.31,10.75-16.05,21.44s11.58,18.53,20.42,15.51
	"/>
<path class="st8" d="M379.16,672.46c-36.87,0.34-73.74,0.68-110.61,1.02c-10.37,0.1-20.74,0.19-31.11,0.29
	c-9.2,0.09-17.31-10.75-16.05-21.44c1.26-10.68,11.58-18.53,20.42-15.51"/>
<path class="st9" d="M411.76,643.23c-36.88,0.34-73.75,0.69-110.63,1.03c-7.18,0.07-13.51-8.47-12.53-16.88s9.04-14.59,15.94-12.21"
	/>
</svg>
