<?xml version="1.0" encoding="utf-8"?>
<!-- Generator: Adobe Adobe Illustrator 24.2.0, SVG Export Plug-In . SVG Version: 6.00 Build 0)  -->
<svg version="1.1" xmlns="http://www.w3.org/2000/svg" xmlns:xlink="http://www.w3.org/1999/xlink" x="0px" y="0px" width="1152px"
	 height="1152px" viewBox="0 0 1152 1152" style="enable-background:new 0 0 1152 1152;" xml:space="preserve">
<style type="text/css">
	.st0{fill:#F2F2F2;}
	.st1{fill:#BFBFBF;stroke:#0D0D0D;stroke-width:21.8433;stroke-miterlimit:10;}
	.st2{fill:#6C6F73;stroke:#0D0D0D;stroke-width:21.8433;stroke-miterlimit:10;}
	.st3{fill:none;stroke:#0D0D0D;stroke-width:21.8433;stroke-miterlimit:10;}
	.st4{fill:#3B3C40;stroke:#0D0D0D;stroke-width:21.8433;stroke-miterlimit:10;}
	.st5{fill:#3B3C40;stroke:#0D0D0D;stroke-width:23.1756;stroke-miterlimit:10;}
	.st6{fill:#BFBFBF;stroke:#0D0D0D;stroke-width:17.5927;stroke-miterlimit:10;}
	.st7{fill:#0D0D0D;stroke:#0D0D0D;stroke-width:17.5927;stroke-miterlimit:10;}
	.st8{fill:none;stroke:#0D0D0D;stroke-width:16.3824;stroke-miterlimit:10;}
	.st9{fill:#0D0D0D;}
	.st10{fill:#3B3C40;stroke:#0D0D0D;stroke-width:16.3824;stroke-miterlimit:10;}
</style>
<g id="Layer_1">
	<rect class="st0" width="1152" height="1152"/>
</g>
<g id="Layer_2">
	<path class="st1" d="M884.89,470.15v165.14c0,30.32-24.04,54.91-53.69,54.91h-96.43v75.79c0,25.54-20.25,46.24-45.22,46.24H311.99
		c-24.79,0-44.89-20.55-44.89-45.9V470.15c0-41.64,33.01-75.39,73.72-75.39h470.34C851.89,394.76,884.89,428.52,884.89,470.15z"/>
	<path class="st2" d="M267.11,765.36V526.57c0-25.89,20.99-46.88,46.88-46.88h238.88c25.89,0,46.88,20.99,46.88,46.88v238.79
		c0,25.89-20.99,46.88-46.88,46.88H313.98C288.09,812.23,267.11,791.25,267.11,765.36z"/>
	<path class="st1" d="M306.52,727.2V564.73c0-25.89,20.99-46.88,46.88-46.88h160.06c25.89,0,46.88,20.99,46.88,46.88V727.2
		c0,25.89-20.99,46.88-46.88,46.88H353.39C327.51,774.08,306.52,753.09,306.52,727.2z"/>
	<rect x="477.17" y="332.92" class="st2" width="166.32" height="61.85"/>
	<path class="st4" d="M429.64,300.92v-6.68c0-17.67,14.33-32,32-32h197.37c17.67,0,32,14.33,32,32v6.68c0,17.67-14.33,32-32,32
		H461.64C443.97,332.92,429.64,318.59,429.64,300.92z"/>
	<g>
		<ellipse class="st5" cx="433.42" cy="645.96" rx="93.96" ry="96.08"/>
		<g>
			<g>
				<path class="st6" d="M487.7,683.88v15.06c0,9.73-7.88,17.61-17.61,17.61h-21.74c-9.73,0-17.61-7.88-17.61-17.61V637.9h10.97
					C467.11,637.9,487.7,658.49,487.7,683.88z"/>
				<path class="st6" d="M395.5,700.24h-15.06c-9.73,0-17.61-7.88-17.61-17.61v-21.74c0-9.73,7.88-17.61,17.61-17.61h61.05v10.97
					C441.49,679.65,420.9,700.24,395.5,700.24z"/>
				<path class="st6" d="M379.15,608.04v-15.06c0-9.73,7.88-17.61,17.61-17.61h21.74c9.73,0,17.61,7.88,17.61,17.61v61.05h-10.97
					C399.74,654.03,379.15,633.44,379.15,608.04z"/>
				<path class="st6" d="M471.34,591.69h15.06c9.73,0,17.61,7.88,17.61,17.61v21.74c0,9.73-7.88,17.61-17.61,17.61h-61.05v-10.97
					C425.36,612.27,445.95,591.69,471.34,591.69z"/>
			</g>
			<ellipse class="st7" cx="433.42" cy="645.96" rx="23.26" ry="22.94"/>
		</g>
	</g>
	<rect x="599.74" y="506.25" class="st9" width="285.15" height="23.19"/>
	<rect x="599.74" y="506.25" class="st9" width="285.15" height="23.19"/>
	<rect x="736.61" y="554.9" class="st10" width="104.76" height="33.13"/>
	<rect x="736.61" y="588.04" class="st10" width="104.76" height="33.13"/>
	<ellipse class="st8" cx="678.86" cy="751.71" rx="21.87" ry="22.36"/>
</g>
</svg>
