<?xml version="1.0" encoding="utf-8"?>
<!-- Generator: Adobe Adobe Illustrator 24.2.0, SVG Export Plug-In . SVG Version: 6.00 Build 0)  -->
<svg version="1.1" xmlns="http://www.w3.org/2000/svg" xmlns:xlink="http://www.w3.org/1999/xlink" x="0px" y="0px" width="1152px"
	 height="1152px" viewBox="0 0 1152 1152" style="enable-background:new 0 0 1152 1152;" xml:space="preserve">
<style type="text/css">
	.st0{fill:#F2F2F2;}
	.st1{fill:#0D0D0D;stroke:#0D0D0D;stroke-width:30;stroke-miterlimit:10;}
	.st2{fill:#F2F2F2;stroke:#0D0D0D;stroke-width:30;stroke-miterlimit:10;}
	.st3{fill:#3B3C40;stroke:#0D0D0D;stroke-width:30;stroke-miterlimit:10;}
	.st4{fill:#6C6F73;stroke:#0D0D0D;stroke-width:25;stroke-miterlimit:10;}
	.st5{font-family:'Rig-MediumFace';}
	.st6{font-size:289.5638px;}
</style>
<g id="Layer_1">
	<rect class="st0" width="1152" height="1152"/>
</g>
<g id="Layer_2">
	<g>
		<path class="st1" d="M909,400.66v471.68c0,53.66-43.5,97.16-97.16,97.16H434.15C328.58,969.5,243,883.92,243,778.35V400.66
			c0-53.66,43.5-97.16,97.16-97.16h471.68C865.5,303.5,909,347,909,400.66z"/>
		<path class="st2" d="M909,400.66v471.68c0,53.66-43.5,97.16-97.16,97.16H638.49C420.07,969.5,243,792.43,243,574.01V400.66
			c0-53.66,43.5-97.16,97.16-97.16h471.68C865.5,303.5,909,347,909,400.66z"/>
		<path class="st3" d="M909,400.66v25.84H243v-25.84c0-53.66,43.5-97.16,97.16-97.16h471.68C865.5,303.5,909,347,909,400.66z"/>
		<path class="st4" d="M357,303.5V236c0-29.55,23.95-53.5,53.5-53.5h0c29.55,0,53.5,23.95,53.5,53.5v67.5H357z"/>
		<path class="st4" d="M688,303.5V236c0-29.55,23.95-53.5,53.5-53.5h0c29.55,0,53.5,23.95,53.5,53.5v67.5H688z"/>
		<text transform="matrix(1 0 0 1 381.6348 755.8827)" class="st5 st6">30</text>
	</g>
</g>
</svg>
