<?xml version="1.0" encoding="utf-8"?>
<!-- Generator: Adobe Adobe Illustrator 24.2.0, SVG Export Plug-In . SVG Version: 6.00 Build 0)  -->
<svg version="1.1" id="Layer_1" xmlns="http://www.w3.org/2000/svg" xmlns:xlink="http://www.w3.org/1999/xlink" x="0px" y="0px"
	 width="1152px" height="1152px" viewBox="0 0 1152 1152" style="enable-background:new 0 0 1152 1152;" xml:space="preserve">
<style type="text/css">
	.st0{fill:#F2F2F2;}
	.st1{fill:none;stroke:#0D0D0D;stroke-width:20;stroke-miterlimit:10;}
	.st2{opacity:0.3608;}
	.st3{fill:none;stroke:#3B3C40;stroke-width:20;stroke-miterlimit:10;}
	.st4{fill:#3B3C40;}
</style>
<rect x="0.57" y="0" class="st0" width="1151.43" height="1152"/>
<g>
	<path class="st1" d="M358.74,856.56v71.48c0,27.14-21.45,49.14-47.91,49.14c-13.23,0-25.21-5.49-33.87-14.39
		c-8.67-8.89-14.03-21.18-14.03-34.75v-71.48c0-27.13,21.45-49.14,47.91-49.14c13.23,0,25.21,5.5,33.88,14.39
		C353.37,830.72,358.74,843,358.74,856.56z"/>
	<path class="st1" d="M889.58,856.56v71.48c0,27.14-21.45,49.14-47.91,49.14c-13.23,0-25.21-5.49-33.87-14.39
		c-8.67-8.89-14.03-21.18-14.03-34.75v-71.48c0-27.13,21.45-49.14,47.91-49.14c13.23,0,25.21,5.5,33.88,14.39
		C884.22,830.72,889.58,843,889.58,856.56z"/>
	<path class="st1" d="M358.74,362.18v71.48c0,27.14-21.45,49.14-47.91,49.14c-13.23,0-25.21-5.49-33.87-14.39
		c-8.67-8.89-14.03-21.18-14.03-34.75v-71.48c0-27.13,21.45-49.14,47.91-49.14c13.23,0,25.21,5.5,33.88,14.39
		C353.37,336.33,358.74,348.61,358.74,362.18z"/>
	<path class="st1" d="M889.58,362.18v71.48c0,27.14-21.45,49.14-47.91,49.14c-13.23,0-25.21-5.49-33.87-14.39
		c-8.67-8.89-14.03-21.18-14.03-34.75v-71.48c0-27.13,21.45-49.14,47.91-49.14c13.23,0,25.21,5.5,33.88,14.39
		C884.22,336.33,889.58,348.61,889.58,362.18z"/>
	<path class="st1" d="M662.61,892.3c0,7.37-1.81,14.34-5.03,20.55c-2.46,4.71-5.73,8.99-9.65,12.65
		c-9.07,8.49-21.61,13.75-35.45,13.75h-72.94c-19.82,0-36.96-10.77-45.09-26.4c-3.23-6.21-5.04-13.18-5.04-20.55
		c0-7.37,1.81-14.34,5.04-20.55c2.46-4.71,5.73-8.98,9.64-12.65c9.09-8.49,21.62-13.75,35.45-13.75h72.94
		c19.82,0,36.95,10.77,45.09,26.4C660.8,877.96,662.61,884.93,662.61,892.3z"/>
	<path class="st1" d="M489.39,892.3c0,7.37,1.81,14.34,5.04,20.55h-135.7v-41.1h135.7C491.2,877.96,489.39,884.93,489.39,892.3z"/>
	<path class="st1" d="M793.76,871.75v41.1H657.57c3.22-6.21,5.03-13.18,5.03-20.55c0-7.37-1.81-14.34-5.05-20.55H793.76z"/>
	<rect x="551.85" y="444.86" class="st1" width="41.81" height="400.49"/>
	<path class="st1" d="M639.83,397.91c0,7.37-1.4,14.34-3.9,20.55c-0.41,1.02-0.84,2.01-1.32,2.98c-1.69,3.55-3.76,6.8-6.15,9.67
		c-7.02,8.49-16.73,13.75-27.46,13.75h-56.48c-14.35,0-26.89-9.42-33.61-23.42c-0.47-0.97-0.91-1.96-1.32-2.98
		c-2.5-6.21-3.9-13.18-3.9-20.55c0-6.21,0.99-12.15,2.81-17.57c0.33-1.02,0.7-2.01,1.09-2.98c1.91-4.71,4.44-8.98,7.47-12.65
		c7.03-8.49,16.74-13.75,27.46-13.75H601c15.35,0,28.62,10.77,34.92,26.4c0.39,0.97,0.76,1.96,1.09,2.98
		C638.84,385.77,639.83,391.7,639.83,397.91z"/>
	<path class="st1" d="M510.91,421.44H358.73v-41.1H508.5c-1.82,5.42-2.81,11.35-2.81,17.57c0,7.37,1.4,14.34,3.9,20.55
		C510,419.48,510.44,420.47,510.91,421.44z"/>
	<path class="st1" d="M793.76,380.35v41.1H634.6c0.48-0.97,0.91-1.96,1.32-2.98c2.5-6.21,3.9-13.18,3.9-20.55
		c0-6.21-0.99-12.15-2.82-17.57H793.76z"/>
</g>
<g class="st2">
	<path class="st3" d="M823.32,682.78v231.7c0,7.23-1.01,14.24-2.91,20.91c-0.25,0.91-0.53,1.82-0.83,2.72
		c-6.5,20.05-21.04,36.84-40.15,47.08c-1.22,0.65-2.45,1.27-3.7,1.87c-0.63,0.31-1.26,0.61-1.91,0.89
		c-1.27,0.57-2.56,1.11-3.86,1.63c0,0-0.01,0-0.01,0.01c-10.45,4.11-21.94,6.39-34.01,6.39H415.47c-30.15,0-56.73-14.25-72.44-35.93
		c-9.42-13.01-14.92-28.69-14.92-45.58v-231.7h4.32c13.97,52.7,64.98,91.77,125.77,91.77h236.07c60.79,0,111.82-39.06,125.79-91.77
		H823.32z"/>
	<path class="st3" d="M823.86,614.86v38.79c0,3.71-0.18,7.38-0.53,11v-49.79H823.86z"/>
	<path class="st3" d="M422.82,947.72V996h-7.35c-48.24,0-87.36-36.5-87.36-81.52v-20.05h37.61
		C397.25,894.43,422.82,918.29,422.82,947.72z"/>
	<path class="st3" d="M823.32,894.43v20.05c0,45.02-39.11,81.52-87.37,81.52h-7.34v-48.28c0-29.43,25.56-53.29,57.1-53.29H823.32z"
		/>
	<path class="st3" d="M676.7,964.84V996H474.74v-31.16c0-3.27,0.35-6.46,1.05-9.54c1.18-5.36,3.33-10.38,6.3-14.91
		c8.83-13.52,24.78-22.54,42.99-22.54h101.27C654.15,917.85,676.7,938.89,676.7,964.84z"/>
	<rect x="474.74" y="940.4" class="st4" width="192.49" height="14.91"/>
	<rect x="477.02" y="960.62" class="st4" width="192.49" height="14.91"/>
	<path class="st3" d="M218,776.56v-4.01c0-17.12,13.88-31,31-31h79.68v29.46c0,20.18-16.36,36.55-36.55,36.55H249
		C231.88,807.56,218,793.68,218,776.56z"/>
	<path class="st3" d="M934,776.56v-4.01c0-17.12-13.88-31-31-31h-79.68v29.46c0,20.18,16.36,36.55,36.55,36.55H903
		C920.12,807.56,934,793.68,934,776.56z"/>
	<path class="st3" d="M823.32,614.86v49.79c-0.59,6.19-1.7,12.25-3.26,18.13c-13.97,52.7-65,91.77-125.79,91.77H458.21
		c-60.79,0-111.8-39.06-125.77-91.77c-2.47-9.33-3.79-19.09-3.79-29.14v-38.79H823.32z"/>
	<path class="st3" d="M823.32,265.02v349.84H328.65v38.79c0,10.05,1.32,19.8,3.79,29.14h-4.32V553.1h0.56V265.02
		C328.68,204.8,381,156,445.52,156h260.97C771.01,156,823.32,204.8,823.32,265.02z"/>
	<path class="st3" d="M820.07,682.78c1.56-5.88,2.67-11.94,3.26-18.13v18.13H820.07z"/>
</g>
</svg>
