<?xml version="1.0" encoding="utf-8"?>
<!-- Generator: Adobe Adobe Illustrator 24.2.0, SVG Export Plug-In . SVG Version: 6.00 Build 0)  -->
<svg version="1.1" id="Layer_1" xmlns="http://www.w3.org/2000/svg" xmlns:xlink="http://www.w3.org/1999/xlink" x="0px" y="0px"
	 width="1152px" height="1152px" viewBox="0 0 1152 1152" style="enable-background:new 0 0 1152 1152;" xml:space="preserve">
<style type="text/css">
	.st0{fill:#F2F2F2;}
	.st1{fill:#BFBFBF;stroke:#0D0D0D;stroke-width:30;stroke-miterlimit:10;}
	.st2{fill:#0D0D0D;stroke:#0D0D0D;stroke-width:30;stroke-miterlimit:10;}
	.st3{fill:#6C6F73;stroke:#0D0D0D;stroke-width:30;stroke-miterlimit:10;}
	.st4{fill:#3B3C40;stroke:#0D0D0D;stroke-width:30;stroke-miterlimit:10;}
	.st5{font-family:'DINAlternate-Bold';}
	.st6{font-size:102.7414px;glyph-orientation-vertical:0;writing-mode:tb;}
	.st7{letter-spacing:-7;}
</style>
<g id="Layer_2">
	<rect y="0" class="st0" width="1152" height="1152"/>
</g>
<path class="st1" d="M838,327.92v513.46C838,898.62,787.1,945,724.31,945H427.69C364.9,945,314,898.62,314,841.39V327.92
	c0-57.23,50.9-103.61,113.69-103.61h37.14c0,36.24,20.88,68.04,52.28,85.95c17.08,9.74,37.27,15.37,58.89,15.37
	c21.63,0,41.82-5.63,58.89-15.37c31.4-17.91,52.28-49.7,52.28-85.95h37.14C787.1,224.31,838,270.7,838,327.92z"/>
<path class="st2" d="M517.11,779.12v-130.4h117.78v130.4c0,11.16-9.05,20.2-20.2,20.2h-77.37
	C526.16,799.33,517.11,790.28,517.11,779.12z"/>
<path class="st3" d="M634.89,310.26v338.47H517.11V310.26c17.08,9.74,37.27,15.37,58.89,15.37
	C597.63,325.62,617.82,320,634.89,310.26z"/>
<path class="st4" d="M687.17,224.31c0,36.24-20.88,68.04-52.28,85.95c-17.07,9.74-37.26,15.37-58.89,15.37
	c-21.62,0-41.81-5.63-58.89-15.37c-31.4-17.91-52.28-49.7-52.28-85.95C464.83,168.36,514.6,123,576,123S687.17,168.36,687.17,224.31
	z"/>
<text transform="matrix(1 0 0 1 413.4599 325.6247)" class="st5 st6 st7">PRDN</text>
</svg>
